<svg xmlns="http://www.w3.org/2000/svg" viewBox="0 0 28 28">
  <g fill="#000000">
    <path d="M0,25.8322581 L3.07096774,22.7612903 C5.6,25.8322581 9.39354839,27.8193548 13.7290323,27.8193548 C18.1548387,27.8193548 22.1290323,25.7419355 24.5677419,22.4 L19.5096774,17.2516129 C19.0580645,18.1548387 16.4954395,20.8645161 13.6387097,20.8645161 C10.7819799,20.8645161 9.21290323,19.3290323 8.12903226,17.7032258 L11.6516129,14.1806452 C7.13548387,14.0903226 2.07741935,14.0903226 1.60445134e-15,14.1806452 L0,25.8322581 Z"/>
    <path d="M13.6387097,0.451612903 L1.98709677,0.451612903 L5.05806452,3.52258065 C2.16774194,5.78064516 0.361290323,9.12258065 0.0903225806,12.916129 L7.13548387,12.916129 C7.49677419,11.1096774 8.67096774,9.57419355 10.116129,8.67096774 L13.6387097,12.1935484 C13.7290323,7.58709677 13.7290323,2.52903226 13.6387097,0.451612903 Z" opacity=".6"/>
    <path d="M27.4599991,14.0903226 L27.4599991,2.43870968 L24.3870968,5.50967742 C22.1290323,2.61935484 18.6064516,0.903225806 14.9032258,0.541935484 L14.9032258,7.58709677 C16.8,7.85806452 18.4258065,9.12258065 19.4193548,10.5677419 L15.8967742,14.0903226 L27.4599991,14.0903226 Z" opacity=".3"/>
  </g>
</svg>
