<svg xmlns="http://www.w3.org/2000/svg" viewBox="0 0 21 16">
  <path fill="currentColor" d="M19 6H9c-.55 0-1 .45-1 1v7c0 .55.45 1 1 1h10c.55 0 1-.45 1-1V7c0-.55-.45-1-1-1zm-8 4.4A1.403 1.403 0 0 1 9.6 9 1.403 1.403 0 0 1 11 7.6 1.403 1.403 0 0 1 12.4 9a1.403 1.403 0 0 1-1.4 1.4zm7 2.6h-6l4.2-4.2 1.8 1.8V13z"/>
  <path fill="currentColor" d="M6 6.8C6 5.256 7.256 4 8.8 4h4.682l-.767-2.34c-.17-.523-.74-.81-1.262-.64L1.95 4.137c-.522.172-.81.74-.638 1.262l2.18 6.65c.172.523.74.81 1.263.64L6 12.28V6.8z"/>
</svg>
