<svg xmlns="http://www.w3.org/2000/svg" viewBox="0 0 15 13">
  <path fill="black" opacity=".3" d="M14.7 1l-.6-.7c-.2-.2-.4-.3-.7-.3-.2 0-.4 0-.6.1-3 2-4.9 3.6-7.3 6.2-1.1-.7-1.9-1.2-3-1.7-.1-.1-.3-.1-.4-.1-.2 0-.5.1-.7.3l-1.1 1c-.2.2-.3.4-.3.7s.1.5.3.7c2.2 2 3.3 3.3 5.1 5.4.2.3.5.4.8.4h.1c.3 0 .6-.2.8-.5 2.9-4.8 5.2-7.6 7.7-10.2.3-.4.3-1-.1-1.3z"/>
  <path fill="currentColor" d="M1 6.5l1.1-1c1.3.6 2.1 1.1 3.6 2.1 2.7-2.9 4.6-4.5 7.7-6.7l.6.7C11.5 4.2 9.1 7.1 6.2 12 4.4 9.9 3.2 8.5 1 6.5z"/>
</svg>
