<svg viewBox="0 0 12 16" xmlns="http://www.w3.org/2000/svg">
  <g fill="currentColor" fill-rule="evenodd">
    <path d="M6 6.3c-1.7 0-3.4-.2-4.6-.6-.6-.2-1-.4-1.4-.6v3.1c0 1.1 2.7 2 6 2s6-.9 6-2V5c-.4.2-.8.5-1.4.6-1.2.5-2.9.7-4.6.7zm0 5c-1.7 0-3.4-.2-4.6-.6-.6-.2-1-.4-1.4-.6v3c0 1.1 2.7 2 6 2s6-.9 6-2v-3c-.4.2-.8.5-1.4.6-1.2.4-2.9.6-4.6.6zM6 0C2.7 0 0 .9 0 2v1c0 1.1 2.7 2 6 2s6-.9 6-2V2c0-1.1-2.7-2-6-2z" opacity=".2"/>
    <path d="M0 5v3.1c0 1.1 2.7 2 6 2s6-.9 6-2V5c-.4.2-.8.5-1.4.6-1.2.4-2.9.6-4.6.6-1.7 0-3.4-.2-4.6-.6C.8 5.5.4 5.2 0 5m12 5c-.4.2-.8.5-1.4.6-1.2.4-2.9.6-4.6.6-1.7 0-3.4-.2-4.6-.6-.6-.2-1-.4-1.4-.6v3c0 1.1 2.7 2 6 2s6-.9 6-2v-3m-6 4c-3 0-4.7-.7-5-1.1v-1.4h.1c1.3.4 3.1.7 4.9.7 1.8 0 3.6-.2 4.9-.7h.1v1.4c-.3.4-2 1.1-5 1.1m0-4.9c-3 0-4.7-.7-5-1.1V6.6h.1c1.3.4 3.1.7 4.9.7 1.8 0 3.6-.2 4.9-.7h.1V8c-.3.3-2 1.1-5 1.1M6 4c-3 0-4.7-.7-5-1.1V2c.3-.3 2-1.1 5-1.1s4.7.7 5 1.1v.9C10.7 3.3 9 4 6 4m0-4C2.7 0 0 .9 0 2v1c0 1.1 2.7 2 6 2s6-.9 6-2V2c0-1.1-2.7-2-6-2"/>
  </g>
</svg>
