<svg xmlns="http://www.w3.org/2000/svg" viewBox="0 0 25 25">
  <path fill="currentColor" d="M12.5 7.89H11V1a11.488 11.488 0 0 0-9.89 9.89H8v1.5a4.5 4.5 0 0 1 4.5-4.5zM8 12.39v1.5H1.11A11.488 11.488 0 0 0 11 23.783v-6.89h1.5a4.5 4.5 0 0 1-4.5-4.5zm9 0v-1.5h6.89A11.488 11.488 0 0 0 14 1v6.89h-1.5a4.5 4.5 0 0 1 4.5 4.5zm0 0a4.5 4.5 0 0 1-4.5 4.5H14v6.892a11.488 11.488 0 0 0 9.89-9.89H17v-1.5z" opacity=".05"/>
  <path fill="currentColor" d="M12.5 1C6.15 1 1 6.15 1 12.5S6.15 24 12.5 24 24 18.85 24 12.5 18.85 1 12.5 1zm10.187 9h-5.294A5.532 5.532 0 0 0 15 7.607V2.313A10.52 10.52 0 0 1 22.687 10zM12.5 17a4.5 4.5 0 1 1 0-9 4.5 4.5 0 0 1 0 9zM14 2.12v5.093C13.522 7.077 13.02 7 12.5 7s-1.022.077-1.5.213V2.12c.49-.07.99-.12 1.5-.12s1.01.05 1.5.12zm-4 .193v5.294A5.532 5.532 0 0 0 7.607 10H2.313A10.52 10.52 0 0 1 10 2.313zM2.12 11h5.093c-.136.478-.213.98-.213 1.5s.077 1.022.213 1.5H2.12c-.07-.49-.12-.99-.12-1.5s.05-1.01.12-1.5zm.193 4h5.294A5.532 5.532 0 0 0 10 17.393v5.294A10.52 10.52 0 0 1 2.313 15zM11 22.88v-5.093c.478.136.98.213 1.5.213s1.022-.077 1.5-.213v5.093c-.49.07-.99.12-1.5.12s-1.01-.05-1.5-.12zm4-.193v-5.294A5.532 5.532 0 0 0 17.393 15h5.294A10.52 10.52 0 0 1 15 22.687zM22.88 14h-5.093c.136-.478.213-.98.213-1.5s-.077-1.022-.213-1.5h5.093c.07.49.12.99.12 1.5s-.05 1.01-.12 1.5z"/>
</svg>
