<svg xmlns="http://www.w3.org/2000/svg" viewBox="0 0 25 25">
  <path opacity=".05" fill="currentColor" d="M4.68 20.916l.07-.207v-.07c.002-.71.26-1.405.686-1.996l.168-.506 3.36-2 .372-.104.257-.143C8.63 15.07 8 13.864 8 12.504v-2.01C8 8.023 10.042 6 12.514 6 14.986 6 17 8.023 17 10.495v2.01c0 1.372-.632 2.59-1.606 3.415l.285.17 2.142 1.14.55.462.11.066c1.04.582 1.726 1.73 1.727 2.994v.258C22.532 18.906 24 15.878 24 12.5 24 6.15 18.85 1 12.5 1S1 6.15 1 12.5c0 3.328 1.422 6.316 3.68 8.416z"/>
  <path fill="currentColor" d="M12.5 1C6.15 1 1 6.15 1 12.5c0 3.24 1.344 6.16 3.5 8.25l.006.007A11.455 11.455 0 0 0 12.5 24C18.85 24 24 18.85 24 12.5S18.85 1 12.5 1zM5.544 20.344c.104-.774.592-1.565 1.33-2.057l3.396-1.91a4.457 4.457 0 0 0 2.244.623 4.41 4.41 0 0 0 2.207-.608l3.4 2.016c.7.386 1.18 1.13 1.3 1.972A10.437 10.437 0 0 1 12.5 23c-2.67 0-5.102-1.01-6.956-2.656zM9 12.504v-2.01C9 8.568 10.576 7 12.514 7A3.495 3.495 0 0 1 16 10.495v2.01A3.494 3.494 0 0 1 12.514 16C10.576 16 9 14.432 9 12.505zm11.258 7.046a3.638 3.638 0 0 0-1.64-2.007l-3.02-1.793A4.475 4.475 0 0 0 17 12.505v-2.01C17 8.022 14.986 6 12.514 6S8 8.023 8 10.495v2.01c0 1.263.537 2.403 1.387 3.222l-3.042 1.71-.018.013a4.178 4.178 0 0 0-1.62 2.062A10.44 10.44 0 0 1 2 12.5C2 6.71 6.71 2 12.5 2S23 6.71 23 12.5c0 2.715-1.045 5.184-2.742 7.05z"/>
</svg>
