<svg xmlns="http://www.w3.org/2000/svg" viewBox="0 0 25 25">
  <path fill="currentColor" d="M6 12.5A6.5 6.5 0 0 1 12.5 6a6.56 6.56 0 0 1 1.5.18V1.11c-.492-.065-.99-.11-1.5-.11C6.15 1 1 6.15 1 12.5S6.15 24 12.5 24c.51 0 1.008-.045 1.5-.11v-5.07a6.56 6.56 0 0 1-1.5.18A6.5 6.5 0 0 1 6 12.5zm7 10.485c-.173.01-.34.015-.5.015C6.71 23 2 18.29 2 12.5S6.71 2 12.5 2c.16 0 .327.005.5.015v3.003A7.023 7.023 0 0 0 12.5 5C8.365 5 5 8.365 5 12.5S8.365 20 12.5 20c.165 0 .332-.006.5-.018v3.003zM24 12.5L17 6v4h-4.5a2.5 2.5 0 0 0 0 5H17v4l7-6.5zM12.5 14c-.827 0-1.5-.673-1.5-1.5s.673-1.5 1.5-1.5H18V8.293l4.53 4.207L18 16.707V14h-5.5z"/>
  <path fill="currentColor" fill-opacity=".05" d="M5 12.5C5 8.365 8.365 5 12.5 5c.165 0 .332.006.5.018V2.015A8.655 8.655 0 0 0 12.5 2C6.71 2 2 6.71 2 12.5S6.71 23 12.5 23c.16 0 .327-.005.5-.015v-3.003a7.023 7.023 0 0 1-.5.018C8.365 20 5 16.635 5 12.5zm13 4.207l4.53-4.207L18 8.293V11h-5.5c-.827 0-1.5.673-1.5 1.5s.673 1.5 1.5 1.5H18v2.707z"/>
</svg>
