<svg xmlns="http://www.w3.org/2000/svg" viewBox="0 0 19 18">
  <path fill="currentColor" d="M6.506 6.014C9.54 6.014 12 5.13 12 4.034V2.98C12 1.887 9.54 1 6.506 1c-3.035 0-5.494.887-5.494 1.98v1.055c0 1.094 2.46 1.98 5.494 1.98zm0 3.993C9.54 10.007 12 9.12 12 8.025V6.498a5.25 5.25 0 0 1-1.27.642c-1.145.413-2.644.638-4.224.638s-3.08-.226-4.222-.64a5.1 5.1 0 0 1-1.272-.642v1.53c0 1.093 2.46 1.98 5.494 1.98zm-4.222 1.13a5.21 5.21 0 0 1-1.273-.64v1.524C1.016 13.117 3.47 14 6.51 14c.167 0 .33-.004.494-.01v-2.23c-.164.004-.326.017-.493.017-1.58 0-3.08-.226-4.222-.64zM18 13l-4-4v3H9v2h5v3l4-4z"/>
</svg>
