<svg xmlns="http://www.w3.org/2000/svg" viewBox="0 0 22 17">
  <path fill="currentColor" d="M6.494 5.994c1.108 0 2.137-.12 3-.322a7.03 7.03 0 0 1 2.494-2v-.69C11.988 1.886 9.528 1 6.494 1S1 1.887 1 2.98v1.036C1 5.11 3.46 5.994 6.494 5.994zm0 3.993c.524 0 1.03-.028 1.51-.078a6.958 6.958 0 0 1 .41-2.28 15.4 15.4 0 0 1-1.92.126c-1.58 0-3.08-.227-4.222-.64A5.118 5.118 0 0 1 1 6.476v1.53c0 1.094 2.46 1.98 5.494 1.98zm0 1.77c-1.58 0-3.08-.226-4.222-.64A5.186 5.186 0 0 1 1 10.477v1.525c0 1.092 2.46 1.98 5.494 1.98.946 0 1.835-.087 2.612-.24a6.946 6.946 0 0 1-.896-2.088c-.553.06-1.125.103-1.716.103zM21 10.73v-1.5l-2.005-.386c-.09-.313-.21-.61-.367-.887l1.145-1.69-1.06-1.06L17.02 6.35a4.154 4.154 0 0 0-.885-.365L15.75 3.98h-1.5l-.387 2.006c-.31.09-.608.21-.886.366l-1.69-1.144-1.062 1.06 1.145 1.69a4.094 4.094 0 0 0-.367.887L9 9.23v1.5l2.005.388c.09.312.21.61.367.886l-1.145 1.687 1.063 1.066 1.688-1.144c.277.156.574.277.886.367l.387 2.003h1.5l.39-2.003c.31-.09.61-.213.887-.367l1.69 1.14 1.06-1.06L18.63 12c.157-.277.278-.573.367-.885L21 10.73zm-6 1.636a2.385 2.385 0 0 1 0-4.77 2.385 2.385 0 0 1 0 4.77z"/>
</svg>
