<svg xmlns="http://www.w3.org/2000/svg" viewBox="0 0 13 15">
  <path fill="currentColor" d="M6.506 7.778c-1.58 0-3.08-.226-4.222-.64a5.1 5.1 0 0 1-1.272-.642v1.53c0 1.093 2.46 1.98 5.494 1.98S12 9.12 12 8.026v-1.53a5.24 5.24 0 0 1-1.272.643c-1.143.412-2.642.637-4.222.637zm0 3.998c-1.58 0-3.08-.226-4.222-.64-.506-.182-.933-.396-1.272-.64v1.524c0 1.093 2.46 1.98 5.494 1.98S12 13.113 12 12.02v-1.524a5.24 5.24 0 0 1-1.272.64c-1.143.415-2.642.64-4.222.64zM6.506 1c-3.035 0-5.494.887-5.494 1.98v1.055c0 1.094 2.46 1.978 5.494 1.978S12 5.13 12 4.035V2.98C12 1.887 9.54 1 6.506 1z"/>
</svg>
