<svg xmlns="http://www.w3.org/2000/svg" viewBox="0 0 30 22">
  <path opacity=".4" fill="currentColor" d="M3 1H2c-.55 0-1 .45-1 1v18c0 .55.45 1 1 1h1c.55 0 1-.45 1-1V2c0-.55-.45-1-1-1zm15 0h-1c-.55 0-1 .45-1 1v.5h1.113l.078.405.16.81.22 1.103.93-.63.51-.344V2c0-.55-.45-1-1-1zm-5 0h-1c-.55 0-1 .45-1 1v1.844l.51.344.93.63.213-1.102.234-1.216H14V2c0-.55-.45-1-1-1zm10 0h-1c-.55 0-1 .45-1 1v2.977l.63.63.876.876-.232.342-.463.685-.63.93 1.11.213 1.22.234v4.227l-.405.078-.81.156-1.103.213.63.93.695 1.03-.29.29-.585.588-.63.63V20c0 .55.45 1 1 1h1c.55 0 1-.45 1-1V2c0-.55-.45-1-1-1zM8 1H7c-.55 0-1 .45-1 1v18c0 .55.45 1 1 1h1c.55 0 1-.45 1-1v-2.98l-.63-.63-.878-.877.232-.342.464-.68.63-.92-1.103-.212L6.5 13.12V8.89l.405-.078.81-.16 1.105-.21-.63-.93-.696-1.025.292-.292.584-.585.63-.63V2c0-.55-.45-1-1-1zm20 0h-1c-.55 0-1 .45-1 1v18c0 .55.45 1 1 1h1c.55 0 1-.45 1-1V2c0-.55-.45-1-1-1zM17.56 17.18l-.212 1.105-.235 1.215H16v.5c0 .55.45 1 1 1h1c.55 0 1-.45 1-1v-1.847l-.508-.344-.93-.63zm-4.75 1.915l-.157-.81-.213-1.103-.927.628-.513.348V20c0 .55.45 1 1 1h1c.55 0 1-.45 1-1v-.5h-1.113l-.078-.405z"/>
  <path fill="currentColor" d="M22 11.875v-1.75l-2.34-.45a4.782 4.782 0 0 0-.427-1.036l1.337-1.98-1.24-1.24-1.97 1.337a4.855 4.855 0 0 0-1.04-.427L15.873 4h-1.75l-.45 2.34a4.69 4.69 0 0 0-1.03.426L10.67 5.43 9.43 6.67l1.337 1.97a4.79 4.79 0 0 0-.428 1.036l-2.34.45v1.75l2.34.452c.1.364.24.71.42 1.034L9.43 15.33l1.24 1.238 1.97-1.335c.323.183.67.323 1.034.43l.45 2.337h1.75l.452-2.338a4.93 4.93 0 0 0 1.034-.43l1.972 1.334 1.237-1.237-1.34-1.97c.18-.33.32-.67.43-1.04l2.34-.45zm-7 1.908a2.782 2.782 0 1 1 0-5.565 2.782 2.782 0 0 1 0 5.565z"/>
</svg>
