<svg xmlns="http://www.w3.org/2000/svg" viewBox="0 0 30 22">
  <path d="M3 1H2c-.55 0-1 .45-1 1v18c0 .55.45 1 1 1h1c.55 0 1-.45 1-1V2c0-.55-.45-1-1-1zm5 0H7c-.55 0-1 .45-1 1v18c0 .55.45 1 1 1h1c.55 0 1-.45 1-1V2c0-.55-.45-1-1-1zm5 0h-1c-.55 0-1 .45-1 1v18c0 .55.45 1 1 1h1c.55 0 1-.45 1-1V2c0-.55-.45-1-1-1zm5 0h-1c-.55 0-1 .45-1 1v18c0 .55.45 1 1 1h1c.55 0 1-.45 1-1V2c0-.55-.45-1-1-1zm5 0h-1c-.55 0-1 .45-1 1v18c0 .55.45 1 1 1h1c.55 0 1-.45 1-1V2c0-.55-.45-1-1-1zm5 0h-1c-.55 0-1 .45-1 1v18c0 .55.45 1 1 1h1c.55 0 1-.45 1-1V2c0-.55-.45-1-1-1z" fill="currentColor"/>
</svg>
