<svg xmlns="http://www.w3.org/2000/svg" viewBox="0 0 20 14">
  <g fill="currentColor">
    <path d="M1.484 4.545l1.213 1.213A10.257 10.257 0 0 1 10 2.716a10.26 10.26 0 0 1 7.284 3.023l1.213-1.216A11.97 11.97 0 0 0 10 1C6.67 1 3.657 2.356 1.483 4.545z"/>
    <path d="M10 5.288a7.69 7.69 0 0 0-5.484 2.29L5.73 8.79A5.982 5.982 0 0 1 10 7.004c1.66 0 3.165.676 4.252 1.768l1.213-1.213A7.693 7.693 0 0 0 10 5.285zm0 4.288c-.962 0-1.828.397-2.45 1.034l2.43 2.432 2.452-2.45A3.414 3.414 0 0 0 10 9.575z"/>
  </g>
</svg>
