<svg xmlns="http://www.w3.org/2000/svg" viewBox="0 0 23 16">
  <path opacity=".24" fill="currentColor" d="M4 2v11h15V2H4zm14 10H5V3h13v9z"/>
  <path opacity=".25" fill="currentColor" d="M14.28 7.5l1.006-.645.842-.54-.54-.842-.54-.842-.54-.84-.842.54-.666.43V3h-3v1.756l-.666-.427-.842-.54-.54.84-.54.84-.54.84.842.54 1.006.65-1.005.64-.842.54.538.84.54.843.54.843.85-.54.67-.424V12h3v-1.757l.667.428.844.54.54-.84.54-.84.538-.84-.84-.54z"/>
  <path opacity=".5" fill="currentColor" d="M5 12h5v-1.757l-.667.428-.843.54-.54-.84-.54-.84-.537-.84.842-.54L8.72 7.5l-1.006-.645-.842-.54.54-.842.54-.842.54-.84.842.54.666.43V3H5v9zm8-9v1.756l.666-.427.842-.54.54.84.54.84.54.84-.842.54-1.007.64 1 .645.84.54-.54.84-.54.844-.54.842-.843-.54-.667-.43V12h5V3h-5z"/>
  <path fill="currentColor" d="M20 13V2c0-.55-.45-1-1-1H4c-.55 0-1 .45-1 1v11H1c0 1 1 2 3 2h15c2 0 3-1 3-2h-2zm-1 0H4V2h15v11zM8.793 9.83L11 8.413V11h1V8.414l2.207 1.415.54-.85-2.32-1.49 2.32-1.487-.54-.843L12 6.588V4h-1v2.585L8.794 5.17l-.54.843 2.32 1.487-2.32 1.486.54.843z"/>
</svg>
