<svg xmlns="http://www.w3.org/2000/svg" viewBox="0 0 61 70">
  <path opacity=".1" fill="currentColor" d="M57 26H38.243l-3.12 3.12L33 31.244l-2.12-2.12L27.756 26H4c-.542 0-1 .458-1 1v39c0 .542.458 1 1 1h53c.542 0 1-.458 1-1V27c0-.542-.458-1-1-1z"/>
  <path fill="currentColor" d="M57 24H40.243l-2 2H57c.542 0 1 .458 1 1v39c0 .064-.026.12-.038.182L37.154 44.656 24.89 56.754l-6.197-6.198-15.57 15.89A.955.955 0 0 1 3 66V27c0-.542.458-1 1-1h23.757l-2-2H4c-1.65 0-3 1.35-3 3v39c0 1.65 1.35 3 3 3h53c.275 0 .536-.05.79-.12l.016.017.034-.033C59.082 68.498 60 67.357 60 66V27c0-1.65-1.35-3-3-3zM5.38 67l13.327-13.6 13.6 13.6H5.38zm29.757 0l-8.832-8.832 10.816-10.67L55.974 67H35.137zM14 38a5 5 0 1 0 10 0 5 5 0 0 0-10 0zm8 0c0 1.654-1.346 3-3 3s-3-1.346-3-3 1.346-3 3-3 3 1.346 3 3zm.668-21.105zm20.664 0l-1.414-1.414L34 23.4V10c0-3.86 3.14-7 7-7h6V1h-6c-4.948 0-8.996 4.047-9 8.994v13.404l-7.918-7.918-1.414 1.414L33 27.227l10.332-10.332z"/>
</svg>
