<svg xmlns="http://www.w3.org/2000/svg" viewBox="0 0 12 12">
  <path fill="currentColor" d="M8.99 5.897V5.45c-.06.042-.136.08-.204.12l.062.1.142.227zM1 8.452v1.11c0 .65 1.21 1.195 2.862 1.372l.29-.464.683-1.093c-1.09-.015-2.118-.173-2.91-.46A3.747 3.747 0 0 1 1 8.453zM6.802 6.23a10.93 10.93 0 0 1-1.807.15c-1.15 0-2.24-.164-3.07-.464A3.748 3.748 0 0 1 1 5.446V6.56C1 7.353 2.788 8 4.995 8c.246 0 .484-.01.717-.026l1.09-1.744zM4.995 5c1.114 0 2.12-.165 2.844-.43L8 4.313l.092.147c.553-.247.898-.556.898-.9V2.44C8.99 1.645 7.2 1 4.995 1 2.788 1 1 1.645 1 2.44v1.12C1 4.358 2.788 5 4.995 5zM8 6.2L5 11h6L8 6.2z"/>
</svg>
