<svg xmlns="http://www.w3.org/2000/svg" viewBox="0 0 12 12">
  <path fill="currentColor" d="M11.158 2.95c-.363.16-.753.268-1.163.316.418-.25.74-.646.89-1.118-.39.23-.824.4-1.284.49a2.026 2.026 0 0 0-3.446 1.847 5.752 5.752 0 0 1-4.17-2.115 2.028 2.028 0 0 0 .627 2.702 2.006 2.006 0 0 1-.916-.254v.025c0 .98.697 1.798 1.623 1.983a1.993 1.993 0 0 1-.914.035 2.022 2.022 0 0 0 1.89 1.406 4.05 4.05 0 0 1-2.512.868c-.163 0-.323-.01-.482-.027a5.723 5.723 0 0 0 3.1.908c3.722 0 5.757-3.083 5.757-5.756a5.66 5.66 0 0 0-.006-.263 4.12 4.12 0 0 0 1.01-1.047z"/>
</svg>
