<svg xmlns="http://www.w3.org/2000/svg" viewBox="0 0 12 12">
  <path fill="currentColor" d="M5.986 8.135A1.995 1.995 0 0 1 4 10c-1.103 0-2-.897-2-2 0-1.056.825-1.914 1.863-1.986l.9-.9A2.834 2.834 0 0 0 4 5a3 3 0 0 0 0 6 3 3 0 0 0 3-3c0-.267-.046-.52-.114-.765l-.9.9zM8 1.025a3 3 0 0 0-3 3c0 .26.043.507.107.745l.91-.91A1.996 1.996 0 0 1 8 2.027c1.103 0 2 .897 2 2 0 1.043-.826 1.892-1.865 1.96l-.902.902c.246.065.5.11.767.11 1.657 0 3-1.317 3-2.975 0-1.657-1.34-3-3-3zM4.38 8.33l3.948-3.95-.707-.707-3.946 3.95.707.706z"/>
</svg>
