<svg xmlns="http://www.w3.org/2000/svg" viewBox="0 0 12 12">
  <path fill="currentColor" d="M9.2 9h-.4c-.44 0-.8.36-.8.8v.4c0 .44.36.8.8.8h.4c.44 0 .8-.36.8-.8v-.4c0-.44-.36-.8-.8-.8zm1-8H1.8c-.44 0-.8.36-.8.8v5.4c0 .44.36.8.8.8h8.4c.44 0 .8-.36.8-.8V1.8c0-.44-.36-.8-.8-.8zM2 3.5a1.5 1.5 0 1 1 3 0 1.5 1.5 0 0 1-3 0zM4 7l3.584-3L10 7H4zm-.8 2h-.4c-.44 0-.8.36-.8.8v.4c0 .44.36.8.8.8h.4c.44 0 .8-.36.8-.8v-.4c0-.44-.36-.8-.8-.8zm3 0h-.4c-.44 0-.8.36-.8.8v.4c0 .44.36.8.8.8h.4c.44 0 .8-.36.8-.8v-.4c0-.44-.36-.8-.8-.8z"/>
</svg>
