<svg xmlns="http://www.w3.org/2000/svg" viewBox="0 0 12 12">
  <path fill="#000000" fill-rule="evenodd" d="M9.038575,5.715363 C8.723265,4.577513 7.847655,3.672573 6.727415,3.316282 L7.119505,2.392423 C8.478875,2.856351 9.545405,3.952663 9.968135,5.330593 L10.469355,4.149963 L11.389895,4.540703 L10.608395,6.381713 L10.217645,7.302213 L9.297115,6.911493 L7.456175,6.130033 L7.846925,5.209503 L9.038575,5.715363 Z M6.126705,2.17218 L5.735955,3.09268 L4.954465,4.93369 L4.034055,4.54297 L4.546875,3.33484 C3.531005,3.67725 2.723755,4.47314 2.365964,5.48175 L1.443845,5.09033 C1.90344,3.84848 2.895385,2.86484 4.142695,2.41641 L2.974485,1.920502 L3.365235,1 L5.206175,1.781464 L6.126705,2.17218 Z M1.17224,6.078433 L2.09277,6.46915 L3.93372,7.250613 L3.54297,8.171143 L2.30872,7.647223 C2.46204,8.165653 2.7323,8.633793 3.08923,9.021673 C3.72961,9.717443 4.64636,10.152283 5.66541,10.152283 C6.64429,10.152283 7.52869,9.751013 8.16443,9.102693 L8.87842,9.802863 C8.06238,10.635073 6.92383,11.152283 5.66541,11.152283 C4.35522,11.152283 3.17517,10.591743 2.35352,9.698853 C1.93311,9.242033 1.60571,8.697573 1.4021,8.096133 L0.920532,9.230683 L-9.9475983e-14,8.839943 L0.781494,6.998935 L1.17224,6.078433 Z"/>
</svg>
