<svg xmlns="http://www.w3.org/2000/svg" viewBox="0 0 12 12">
  <path fill="currentColor" d="M1.01 5.447V6.56C1.01 7.353 2.795 8 5 8V6.38c-1.147 0-2.235-.164-3.065-.464a3.748 3.748 0 0 1-.925-.47zM9 3.56V2.44C9 1.645 7.21 1 5.005 1 2.798 1 1.01 1.645 1.01 2.44v1.12C1.01 4.358 2.798 5 5.005 5 7.21 5 9 4.357 9 3.56zM1.01 8.453v1.11C1.01 10.356 2.795 11 5 11V9.384c-1.147 0-2.235-.164-3.065-.465a3.747 3.747 0 0 1-.925-.467zM6 9h5V8H6v1z"/>
  <path opacity=".4" fill="currentColor" d="M6 6v1h5V6H6zm0 5h5v-1H6v1z"/>
</svg>
