<svg xmlns="http://www.w3.org/2000/svg" viewBox="0 0 12 12">
  <path fill="currentColor" d="M4.005 7.95a3.967 3.967 0 0 1 .357-1.593c-.91-.05-1.76-.198-2.437-.442A3.713 3.713 0 0 1 1 5.447V6.56c0 .67 1.28 1.23 3.005 1.39zM4.995 5c.14 0 .27-.01.405-.015A3.967 3.967 0 0 1 8 4c.246 0 .484.03.718.073.17-.16.272-.33.272-.512V2.44C8.99 1.645 7.2 1 4.995 1 2.788 1 1 1.645 1 2.44v1.12C1 4.358 2.788 5 4.995 5zm-.742 4.357c-.87-.055-1.68-.203-2.328-.44A3.747 3.747 0 0 1 1 8.453v1.11C1 10.353 2.788 11 4.995 11c.127 0 .247-.01.37-.013a3.99 3.99 0 0 1-1.112-1.63zm6.31-2.895L8 8V5a3 3 0 1 0 3 3c0-.565-.165-1.087-.437-1.538z"/>
</svg>
