<svg xmlns="http://www.w3.org/2000/svg" viewBox="0 0 12 12">
  <path fill="currentColor" d="M5.995 6.38c-1.15 0-2.24-.164-3.07-.464A3.748 3.748 0 0 1 2 5.446V6.56C2 7.354 3.788 8 5.995 8 8.2 8 9.99 7.355 9.99 6.56V5.45a3.8 3.8 0 0 1-.925.465c-.83.3-1.92.465-3.07.465zm0 3.003c-1.15 0-2.24-.164-3.07-.465A3.747 3.747 0 0 1 2 8.452v1.11C2 10.354 3.788 11 5.995 11 8.2 11 9.99 10.355 9.99 9.56V8.453a3.765 3.765 0 0 1-.925.466c-.83.3-1.92.464-3.07.464zm0-8.383C3.788 1 2 1.645 2 2.44v1.12C2 4.358 3.788 5 5.995 5 8.2 5 9.99 4.357 9.99 3.56V2.44C9.99 1.645 8.2 1 5.995 1z"/>
</svg>
