<svg xmlns="http://www.w3.org/2000/svg" viewBox="0 0 66 60">
  <path fill="currentColor" d="M30.584 34.67a.918.918 0 0 0-.267-.13l.002-.006-14-4.703a.992.992 0 0 0-.64 0l-14 4.71v.007a.975.975 0 0 0-.27.13c-.26.19-.418.49-.418.813V53.3a1 1 0 0 0 .68.947l14 4.703c.208.07.43.07.638 0l14-4.703a1 1 0 0 0 .68-.947V35.482c0-.32-.155-.624-.415-.812zM15 56.61L3 52.577V36.873l12 4.032V56.61zm1-17.478l-10.86-3.65L16 31.834l10.86 3.648L16 39.132zm13 13.446l-12 4.03V40.906l12-4.032V52.58zm19-28.06V6.703c0-.32-.156-.625-.416-.812a1.032 1.032 0 0 0-.267-.13h.002l-14-4.7a.992.992 0 0 0-.64 0l-14 4.703v.005a.975.975 0 0 0-.27.13 1.01 1.01 0 0 0-.418.814v17.81a1 1 0 0 0 .68.948l14 4.703c.208.07.43.07.638 0l14-4.703c.406-.137.68-.52.68-.948zM32 27.83L20 23.8V8.093l12 4.032V27.83zm1-17.478l-10.86-3.65L33 3.056l10.86 3.648L33 10.354zM46 23.8l-12 4.03V12.126l12-4.032V23.8zm18.584 10.87a.918.918 0 0 0-.267-.13l.002-.006-14-4.703a.992.992 0 0 0-.64 0l-14 4.71v.007a.975.975 0 0 0-.27.13c-.26.19-.418.49-.418.813V53.3a1 1 0 0 0 .68.947l14 4.703c.208.07.43.07.638 0l14-4.703a1 1 0 0 0 .68-.947V35.482c0-.32-.155-.624-.415-.812zM49 56.61l-12-4.032V36.873l12 4.032V56.61zm1-17.478l-10.86-3.65L50 31.835l10.86 3.648L50 39.133zm13 13.446l-12 4.03V40.906l12-4.032V52.58z"/>
  <path opacity=".3" fill="currentColor" d="M1.375 35.375l.5 17.375 13.75 4.625.625-17.063zM19 6.875V24.25l13.75 4.625.625-17.063zm16.875 28.75V53l13.75 4.625.625-17.063z"/>
</svg>
