<svg xmlns="http://www.w3.org/2000/svg" viewBox="0 0 39 54">
  <path fill="currentColor" d="M19.524 1C9.318 1 1 3.982 1 7.66v8.682C1 20.018 9.318 23 19.524 23 29.728 23 38 20.018 38 16.342V7.66C38 3.982 29.728 1 19.524 1zm0 2C30.394 3 36 6.266 36 7.66v.042c0 .245-.065.49-.225.775-.276.495-.886 1.082-1.816 1.63-1.39.827-3.458 1.566-5.94 2.08-2.488.515-5.395.813-8.498.813-4.728.002-9.007-.697-12.02-1.786-1.505-.54-2.69-1.183-3.436-1.822-.375-.318-.638-.632-.797-.915a1.55 1.55 0 0 1-.225-.775H3V7.66C3 6.266 8.622 3 19.524 3zm0 18C8.622 21 3 17.735 3 16.342v-5.255c.328.26.677.508 1.066.74 1.675.99 3.916 1.768 6.555 2.317 2.64.547 5.674.856 8.906.856 4.925-.002 9.384-.713 12.697-1.904 1.52-.55 2.79-1.203 3.78-1.976v5.22C36 17.736 30.395 21 19.525 21z"/>
  <path opacity=".9" fill="currentColor" d="M36.63 20.148c-.544.388-1.163.75-1.854 1.08.805.546 1.224 1.057 1.224 1.432v.042c0 .245-.065.49-.225.775-.276.495-.886 1.082-1.816 1.63-1.39.827-3.458 1.566-5.94 2.08-2.488.515-5.395.813-8.498.813-4.728.002-9.007-.697-12.02-1.786-1.505-.54-2.69-1.183-3.436-1.822-.374-.318-.637-.632-.797-.915a1.55 1.55 0 0 1-.225-.775H3v-.042c0-.38.43-.898 1.255-1.45a12.79 12.79 0 0 1-1.863-1.077C1.5 20.913 1 21.765 1 22.66v8.682C1 35.018 9.318 38 19.524 38 29.728 38 38 35.018 38 31.342V22.66c0-.89-.493-1.737-1.37-2.512zM36 31.342C36 32.735 30.394 36 19.524 36 8.622 36 3 32.735 3 31.342v-5.255c.328.26.677.508 1.066.74 1.675.99 3.916 1.768 6.555 2.317 2.64.547 5.674.856 8.906.856 4.925-.002 9.384-.713 12.697-1.904 1.52-.55 2.79-1.203 3.78-1.976v5.222z"/>
  <path opacity=".9" fill="currentColor" d="M36.63 35.148c-.544.388-1.163.75-1.854 1.08.805.546 1.224 1.057 1.224 1.432v.042c0 .245-.065.49-.225.775-.276.495-.886 1.082-1.816 1.63-1.39.827-3.458 1.566-5.94 2.08-2.488.515-5.395.813-8.498.813-4.728.002-9.007-.697-12.02-1.786-1.505-.54-2.69-1.183-3.436-1.822-.374-.318-.637-.632-.797-.915a1.55 1.55 0 0 1-.225-.775H3v-.042c0-.38.43-.898 1.255-1.45a12.79 12.79 0 0 1-1.863-1.077C1.5 35.913 1 36.765 1 37.66v8.682C1 50.018 9.318 53 19.524 53 29.728 53 38 50.018 38 46.342V37.66c0-.89-.493-1.737-1.37-2.512zM36 46.342C36 47.735 30.394 51 19.524 51 8.622 51 3 47.735 3 46.342v-5.255c.328.26.677.508 1.066.74 1.675.99 3.916 1.768 6.555 2.317 2.64.547 5.674.856 8.906.856 4.925-.002 9.384-.713 12.697-1.904 1.52-.55 2.79-1.203 3.78-1.976v5.222z"/>
  <path fill="currentColor" d="M19.524 14C9.318 14 3.75 11.375 1 7.66v8.682C1 20.018 9.318 23 19.524 23 29.728 23 38 20.018 38 16.342V7.66C35.75 11 29.728 14 19.524 14zm0 30C9.318 44 3.75 41.375 1 37.66v8.682C1 50.018 9.318 53 19.524 53 29.728 53 38 50.018 38 46.342V37.66C35.75 41 29.728 44 19.524 44zm0-15C9.318 29 3.75 26.375 1 22.66v8.682C1 35.018 9.318 38 19.524 38 29.728 38 38 35.018 38 31.342V22.66C35.75 26 29.728 29 19.524 29z" opacity=".3"/>
</svg>
