<svg xmlns="http://www.w3.org/2000/svg" viewBox="0 0 15 15">
  <path fill="currentColor" d="M13.878 7.23C13.748 7.05 10.978 3 7.47 3S1.196 7.05 1.066 7.23c-.087.135-.087.36 0 .54.13.18 2.9 4.23 6.406 4.23 3.464 0 6.277-4.05 6.407-4.23.13-.18.13-.36 0-.54zM7.5 10C6.125 10 5 8.875 5 7.5S6.125 5 7.5 5 10 6.125 10 7.5 8.875 10 7.5 10z"/>
  <path fill="currentColor" d="M13.878 7.23C13.748 7.05 10.978 3 7.47 3S1.196 7.05 1.066 7.23c-.087.135-.087.36 0 .54.13.18 2.9 4.23 6.406 4.23 3.464 0 6.277-4.05 6.407-4.23.13-.18.13-.36 0-.54zM7.5 10C6.125 10 5 8.875 5 7.5S6.125 5 7.5 5 10 6.125 10 7.5 8.875 10 7.5 10z"/>
</svg>
