<svg xmlns="http://www.w3.org/2000/svg" viewBox="0 0 15 15">
  <path fill="currentColor" d="M2.78 9.744l1.863-1.862c-.017-.126-.04-.25-.04-.382A2.904 2.904 0 0 1 7.5 4.604c.13 0 .256.022.382.04l1.32-1.32A5.09 5.09 0 0 0 7.47 3C3.964 3 1.194 7.05 1.064 7.23c-.087.135-.087.36 0 .54.06.084.7 1.01 1.716 1.974zm11.1-2.514c-.06-.083-.688-.992-1.687-1.946L10.36 7.118c.017.126.04.25.04.382a2.904 2.904 0 0 1-2.9 2.896c-.13 0-.256-.022-.382-.04L5.785 11.69c.536.19 1.1.31 1.686.31 3.467 0 6.28-4.05 6.41-4.23.13-.18.13-.36 0-.54zm-1.232-5.584l-11 11 .707.707 11-11-.707-.707z"/>
</svg>
