<svg xmlns="http://www.w3.org/2000/svg" viewBox="0 0 38 27">
  <path fill="currentColor" d="M15 14L9 9v4H6c-1.654 0-3-1.346-3-3V5H1.046v5.452C1.28 12.99 3.406 15 6 15h3v4l6-5z"/>
  <path fill="currentColor" d="M27.478 8C23.25 8 20.593 6.966 20 6.364v-1.63c.592-.602 3.25-1.637 7.478-1.637s6.884 1.034 7.477 1.636v1.63C34.36 6.967 31.705 8 27.478 8m0-6.903C22.243 1.097 18 2.627 18 4.513v2.072C18 8.47 22.243 10 27.478 10c5.234 0 9.477-1.53 9.477-3.415V4.513c0-1.887-4.243-3.416-9.477-3.416" opacity=".5"/>
  <path opacity=".15" fill="currentColor" d="M27.478 8C23.25 8 20.593 6.966 20 6.364v-1.63c.592-.602 3.25-1.637 7.478-1.637s6.884 1.034 7.477 1.636v1.63C34.36 6.967 31.705 8 27.478 8"/>
  <path fill="currentColor" d="M34.954 11.975v2.345c-.59.602-3.248 1.637-7.477 1.637-4.23 0-6.886-1.035-7.478-1.637v-2.345c-.824-.273-1.498-.59-2-.94v3.505c0 1.888 4.24 3.417 9.475 3.417 5.234 0 9.477-1.53 9.477-3.417v-3.506c-.505.35-1.18.668-2 .94z"/>
  <path fill="currentColor" d="M19.64 11.845c.12.044.234.09.36.13v2.345c.592.602 3.25 1.637 7.478 1.637 4.23 0 6.885-1.035 7.477-1.637v-2.345c.126-.042.243-.087.362-.13C33.4 12.55 30.603 13 27.477 13c-3.124 0-5.92-.448-7.837-1.155z" opacity=".25"/>
  <path opacity=".5" fill="currentColor" d="M34.954 19.94v2.346c-.59.602-3.248 1.637-7.477 1.637-4.23 0-6.886-1.035-7.478-1.637V19.94c-.824-.272-1.498-.59-2-.94v3.506c0 1.888 4.24 3.417 9.475 3.417 5.234 0 9.477-1.53 9.477-3.417V19c-.505.35-1.18.67-2 .94z"/>
  <path fill="currentColor" d="M19.64 19.81c.12.045.234.09.36.13v2.346c.592.602 3.25 1.637 7.478 1.637 4.23 0 6.885-1.035 7.477-1.637V19.94c.126-.04.243-.086.362-.13-1.916.708-4.713 1.156-7.84 1.156-3.124 0-5.92-.447-7.837-1.155z" opacity=".15"/>
</svg>
