<svg xmlns="http://www.w3.org/2000/svg" viewBox="0 0 45 36">
  <path fill="currentColor" d="M42 8.184V32c0 .55-.45 1-1 1H8.184c.414 1.16 1.514 2 2.816 2h30c1.654 0 3-1.346 3-3V11a3 3 0 0 0-2-2.816z"/>
  <path fill="currentColor" d="M37 1H3c-1.1 0-2 .9-2 2v25c0 1.1.9 2 2 2h34c1.1 0 2-.9 2-2V3c0-1.1-.9-2-2-2zM6.414 28L13 21.414 19.586 28H6.414zm16 0l-4-4L25 17.414 35.586 28H22.414zM37 26.586l-12-12-8 8-4-4L3.586 28H3V3h34v23.586zM12 15zm0-6a2.003 2.003 0 0 1 2 2 2.003 2.003 0 0 1-2 2 2.003 2.003 0 0 1-2-2 2.003 2.003 0 0 1 2-2z"/>
</svg>
