<svg xmlns="http://www.w3.org/2000/svg" viewBox="0 0 38 38">
  <path fill="currentColor" d="M21.704 23.927C20.214 17.917 11.46 1 11.46 1S3.79 16.076 1.436 23.17C1.153 24.005 1 25.228 1 26.163l.015.132a2.68 2.68 0 0 0-.015.27c0 5.75 4.696 10.415 10.486 10.415 5.78 0 10.486-4.664 10.486-10.416l-.012-.205.012-.2c0-1.08-.268-2.24-.268-2.24zM11.486 34.98C6.806 34.98 3 31.203 3 26.563l.005-.072.01-.1v-.09L3 26.05c.013-.777.148-1.7.335-2.25 1.59-4.79 5.745-13.477 8.14-18.344 2.614 5.235 7.274 14.863 8.28 18.92.055.238.208 1.052.216 1.733l-.01.25c0 .08.01.16.02.25-.026 4.62-3.823 8.37-8.485 8.37zM37 15.67c0-.626-.153-1.303-.153-1.303-.85-3.505-5.85-13.37-5.85-13.37s-4.38 8.79-5.725 12.928c-.162.486-.25 1.2-.25 1.745l.008.077-.008.157c0 3.354 2.682 6.073 5.99 6.073 3.3 0 5.988-2.72 5.988-6.073l-.007-.12.007-.115zm-5.99 4.307c-2.2 0-3.988-1.828-3.99-4.038l.01-.1v-.1l-.007-.17c.01-.39.08-.826.15-1.03.742-2.287 2.488-6.13 3.837-8.98 1.57 3.28 3.443 7.42 3.886 9.24.02.084.095.484.103.81l-.01.17v.17c-.03 2.222-1.807 4.02-3.99 4.02z"/>
</svg>
