<svg xmlns="http://www.w3.org/2000/svg" viewBox="0 0 48 22">
  <path d="M16.168 20.8l-1.846-4.55H5.29L3.47 20.8H1L8.936 2.792h2L18.642 20.8h-2.474zM9.608 5.74L6.01 14.466h7.563L9.98 5.616h-.268l-.104.124zM27.42 21.11c-.8 0-1.588-.177-2.346-.526-.752-.346-1.35-.84-1.778-1.465l-.06-.09h-.306l-.052.2v1.57h-1.94V1.54h1.94v9.1h.31l.11-.09c.394-.607.97-1.096 1.712-1.45a5.56 5.56 0 0 1 2.41-.54c.92 0 1.765.162 2.508.48.742.315 1.384.76 1.91 1.316a5.91 5.91 0 0 1 1.218 1.987c.285.763.43 1.6.43 2.49 0 .89-.145 1.724-.43 2.478a6.065 6.065 0 0 1-1.22 1.99 5.548 5.548 0 0 1-1.91 1.33c-.738.32-1.582.48-2.505.48zm-.285-10.762c-.648 0-1.244.115-1.77.342a3.97 3.97 0 0 0-1.34.93c-.364.393-.65.87-.848 1.423-.198.547-.298 1.15-.298 1.796s.1 1.24.29 1.79c.2.55.482 1.03.85 1.42a3.91 3.91 0 0 0 1.34.93 4.44 4.44 0 0 0 1.77.34 4.44 4.44 0 0 0 1.77-.342c.52-.226.973-.54 1.34-.93a4.11 4.11 0 0 0 .85-1.42 5.29 5.29 0 0 0 .3-1.798c0-.645-.1-1.25-.3-1.797a4.11 4.11 0 0 0-.85-1.42 3.96 3.96 0 0 0-1.34-.933 4.44 4.44 0 0 0-1.77-.342zm15.34 10.762c-.925 0-1.78-.15-2.54-.452a5.873 5.873 0 0 1-1.975-1.27 5.63 5.63 0 0 1-1.28-1.96c-.3-.76-.454-1.615-.454-2.54 0-.922.153-1.78.454-2.552a5.82 5.82 0 0 1 1.27-1.986c.54-.55 1.2-.984 1.96-1.294.763-.31 1.625-.467 2.564-.467a6.9 6.9 0 0 1 2.515.46 5.512 5.512 0 0 1 1.93 1.27l-1.48 1.345a5.052 5.052 0 0 0-1.29-.93c-.502-.246-1.104-.37-1.79-.37-.67 0-1.263.124-1.765.37a3.63 3.63 0 0 0-1.266 1.02 4.57 4.57 0 0 0-.763 1.47 5.74 5.74 0 0 0-.256 1.71c0 .592.1 1.162.3 1.693a4.3 4.3 0 0 0 .846 1.403c.365.4.81.72 1.315.945a4.174 4.174 0 0 0 1.72.346c.69 0 1.287-.124 1.78-.37a4.426 4.426 0 0 0 1.217-.917l1.38 1.38a5.032 5.032 0 0 1-1.91 1.264 7.22 7.22 0 0 1-2.49.43z" fill="currentColor"/>
</svg>
