<svg xmlns="http://www.w3.org/2000/svg" viewBox="0 0 30 30">
  <path fill="currentColor" d="M26.35 4.07l-.414-.413a7.974 7.974 0 0 0-5.657-2.333 7.978 7.978 0 0 0-5.66 2.333l-3.93 3.93c-3.11 3.11-3.11 8.202 0 11.314l.41.42c.33.33.682.62 1.052.88l.18-.18 1.26-1.26a5.95 5.95 0 0 1-1.08-.85l-.413-.413a5.957 5.957 0 0 1-1.748-4.242c0-1.61.62-3.115 1.747-4.242l3.93-3.93a5.957 5.957 0 0 1 4.243-1.746c1.61 0 3.118.62 4.245 1.75l.41.412a5.957 5.957 0 0 1 1.75 4.242 5.95 5.95 0 0 1-1.748 4.243l-.504.504c.32.75.48 1.55.472 2.353l1.444-1.444c3.11-3.11 3.11-8.204 0-11.316zm-7.45 6.623a7.924 7.924 0 0 0-1.055-.877l-.18.18-1.26 1.26c.387.24.752.522 1.082.85l.412.413a5.957 5.957 0 0 1 1.74 4.24A5.95 5.95 0 0 1 17.894 21l-3.93 3.93a5.96 5.96 0 0 1-4.244 1.748 5.95 5.95 0 0 1-4.24-1.748l-.41-.41a5.957 5.957 0 0 1-1.75-4.24c0-1.61.62-3.117 1.746-4.244l.505-.504a5.804 5.804 0 0 1-.47-2.352l-1.44 1.443c-3.11 3.11-3.11 8.202 0 11.314l.416.412a8 8 0 0 0 5.658 2.33c2.052 0 4.1-.78 5.658-2.34l3.93-3.93c3.11-3.11 3.11-8.203 0-11.315l-.412-.41z"/>
</svg>
