<svg xmlns="http://www.w3.org/2000/svg" viewBox="0 0 38 32">
  <path opacity=".5" fill="currentColor" d="M35 16.018v2.345c-.59.602-3.248 1.637-7.477 1.637-4.23 0-6.886-1.035-7.478-1.637v-2.345c-.82-.273-1.495-.59-2-.94v3.505c0 1.888 4.243 3.417 9.478 3.417C32.758 22 37 20.47 37 18.583v-3.506c-.505.35-1.18.668-2 .94z"/>
  <path fill="currentColor" d="M19.686 15.888c.12.044.234.09.36.13v2.345c.592.602 3.248 1.637 7.477 1.637 4.23 0 6.885-1.035 7.477-1.637v-2.345c.126-.042.243-.087.362-.13-1.916.707-4.713 1.155-7.84 1.155-3.123 0-5.92-.448-7.836-1.155z" opacity=".15"/>
  <path fill="currentColor" d="M27.523 11.903c-4.228 0-6.885-1.034-7.478-1.636v-1.63C20.638 8.034 23.295 7 27.523 7S34.408 8.034 35 8.636v1.63c-.593.603-3.25 1.637-7.477 1.637m0-6.903c-5.234 0-9.477 1.53-9.477 3.416v2.072c0 1.886 4.243 3.415 9.477 3.415S37 12.373 37 10.488V8.416C37 6.53 32.758 5 27.523 5"/>
  <path opacity=".25" fill="currentColor" d="M27.523 11.903c-4.228 0-6.885-1.034-7.478-1.636v-1.63C20.638 8.034 23.295 7 27.523 7S34.408 8.034 35 8.636v1.63c-.593.603-3.25 1.637-7.477 1.637"/>
  <path fill="currentColor" d="M35 23.845v2.345c-.59.602-3.248 1.637-7.477 1.637-4.23 0-6.886-1.035-7.478-1.637v-2.345c-.82-.273-1.495-.59-2-.94v3.505c0 1.888 4.243 3.417 9.478 3.417 5.234 0 9.477-1.53 9.477-3.417v-3.506c-.505.35-1.18.668-2 .94z"/>
  <path fill="currentColor" d="M19.686 23.714c.12.044.234.09.36.13v2.345c.592.6 3.25 1.635 7.478 1.635 4.23 0 6.885-1.035 7.477-1.637v-2.346c.128-.042.245-.087.364-.13-1.916.707-4.713 1.155-7.84 1.155-3.124 0-5.92-.448-7.837-1.156z" opacity=".25"/>
  <path fill="currentColor" d="M14.954 10L9 5v4H5.954c-1.654 0-3-1.346-3-3V1H1v5.452C1.234 8.99 3.36 11 5.954 11H9v4l5.954-5z"/>
  <path fill="currentColor" d="M14.954 26L9 21v4H5.954c-1.654 0-3-1.346-3-3V7H1v15.452C1.234 24.99 3.36 27 5.954 27H9v4l5.954-5z"/>
</svg>
