<svg xmlns="http://www.w3.org/2000/svg" viewBox="0 0 23 14">
  <path d="M1.5 11.5h1.1L10 1.1h2v10.4h1.1l-.5 1.3h-4l.5-1.3h1.2V8.9H6.2l-1.8 2.6h1.3l-.5 1.3H1.1l.4-1.3zm8.9-3.9V3.5c0-.5.1-.9.1-.9s-.2.4-.5.9L7.1 7.6h3.3zm9.1.2h.4s.2-.5.2-.8c.1-.8-.2-1.2-1.3-1.2-1.3 0-2.5.8-2.5.8l-.2-1.2s1.5-.8 3.2-.8c1.5 0 2.7.6 2.4 2.3-.1.9-1.3 3.4-1.4 4.1-.1.6.2.7.6.7h.4l-.3 1.1h-.7c-.9 0-1.6-.4-1.4-1.5 0 0-1.3 1.6-3.1 1.6-1.3 0-2.2-.7-2-2 .2-2.5 3.5-3.1 5.7-3.1zm-3.2 4c1.3 0 2.7-1.5 3.2-2.6l.1-.3h-.4c-1.1 0-3.7.2-4 1.9-.1.5.2 1 1.1 1z" fill="currentColor"/>
</svg>
