<svg xmlns="http://www.w3.org/2000/svg" viewBox="0 0 24 15">
  <g fill="currentColor">
    <path d="M3.2 13.5c-.6 0-1.1-.2-1.6-.6-.4-.4-.6-.9-.6-1.4 0-.6.1-1.1.4-1.6.3-.5.7-1 1.2-1.4.5-.4 1.2-.8 2-1.1.8-.2 1.7-.4 2.7-.4h.1l.1-.1c.6-1.5 1.2-3.2 1.6-5.1v-.3c0-.1 0-.2-.1-.3.9-.1 1.7-.2 2.4-.2l.9.1c.2.5.3 1.2.4 2 0 .9.1 2.4.1 4.8V8h.1c1.2.5 2.2 1.2 3 1.9 0 .1-.1.2-.2.2-.1.1 0 .5 0 .5-.7-.5-1.7-1.3-2.6-1.7l-.3-.2V9c0 .7.1 1.2.2 1.7.2.9.4 1.2.8 1.2h.3l.1.3c-.7.4-1.4.6-2 .6-1.1 0-1.3-.8-1.3-2.4V8.1h-.1c-.8-.3-1.8-.4-2.5-.5h-.1v.1c-1.5 3.9-3.2 5.8-5 5.8zm3.7-5.9c-1.3.1-2.4.6-3.3 1.4-.9.8-1.3 1.6-1.3 2.4 0 1.1.6 1.2 1 1.2 1.2 0 2.4-1.5 3.9-4.7l.1-.3h-.4zm3.3-5.7c-.2 0-.2.1-.3.1-.2 1-.7 2.6-1.4 4.7l-.1.3h.3c.6 0 1.5.2 2.1.3h.2v-.2c0-2.8-.1-4.4-.2-4.9-.1-.2-.5-.3-.6-.3z"/>
    <path d="M20.6 12.9c-.6 0-.9-.3-1-.8l-.1-.3-.2.2c-.7.6-1.3.9-1.8.9s-1-.2-1.3-.6c-.4-.4-.6-1.1-.6-2 0-1.5.3-2.6.9-3.5.5-.8 1.2-1.3 2.1-1.3.6 0 1.2.2 1.7.5h.2c.1-.1.1-.1.2-.4.5 0 1 .2 1.8.4-.3.9-.5 1.8-.6 2.8-.2 1-.3 1.8-.3 2.2 0 .4 0 .9.3.9.1 0 .2 0 .8-.3l.1.3-.1.1c-.2.1-.4.3-.9.5-.5.3-.8.4-1.2.4zm-1.3-6.8c-.5 0-.9.4-1.2 1.3-.3.8-.4 1.7-.4 2.7 0 1.1.3 1.6.8 1.6.3 0 .7-.1 1-.4.2-1.8.4-3.4.9-4.9v-.1l-.1-.1c-.4 0-.7-.1-1-.1z"/>
  </g>
</svg>
