<svg xmlns="http://www.w3.org/2000/svg" viewBox="0 0 37 43">
  <g fill="currentColor">
    <g opacity=".3">
      <path d="M31 31h-2v6h2v-6m0-23h-2v21h2V8m0-7h-2v5h2V1M6 6H1v2h5V6m30 0H8v2h28V6m0 23H13v1l.707.707-.294.293H36v-2M6 29H1v2h5v-2"/>
      <path d="M6 35.586l-4.207 4.207 1.414 1.414L6 38.414V36m6.293-6.707L8 33.586v2.828L13.413 31l.293-.293L13 30l-.707-.707M8 1H6v40h2V1"/>
    </g>
    <path opacity=".2" d="M12.584 29H6v2h7l.207.207 6.5-6.5-1.414-1.414L12.583 29zM26.5 15zm0-7a2.503 2.503 0 0 1 2.5 2.5 2.503 2.503 0 0 1-2.5 2.5 2.504 2.504 0 0 1-2.5-2.5A2.504 2.504 0 0 1 26.5 8zm-16 7zm0-7a2.503 2.503 0 0 1 2.5 2.5 2.503 2.503 0 0 1-2.5 2.5A2.503 2.503 0 0 1 8 10.5 2.504 2.504 0 0 1 10.5 8zm16 14zm0 7a2.505 2.505 0 0 1-2.5-2.5 2.505 2.505 0 0 1 2.5-2.5 2.504 2.504 0 0 1 2.5 2.5 2.503 2.503 0 0 1-2.5 2.5z"/>
    <path opacity=".18" d="M29 26c0 .824-.335 1.57-.882 2.118a2.988 2.988 0 0 1-2.12.882H12.586L8 33.586V11c0-.824.335-1.57.882-2.118A2.983 2.983 0 0 1 11 8h15c.823 0 1.57.335 2.117.882.548.548.883 1.294.883 2.118v15z"/>
    <path d="M26 6H11a5.008 5.008 0 0 0-5 5v27.414L13.414 31H26c2.756 0 5-2.243 5-5V11a5.01 5.01 0 0 0-5-5zm3 20c0 .824-.335 1.57-.882 2.118a2.988 2.988 0 0 1-2.12.882H12.586L8 33.586V11c0-.824.335-1.57.882-2.118A2.983 2.983 0 0 1 11 8h15c.823 0 1.57.335 2.117.882.548.548.883 1.294.883 2.118v15zM18.5 14.167a1.668 1.668 0 1 0-.003-3.336 1.668 1.668 0 0 0 .002 3.34zM20 19a3 3 0 0 0-3-3h-2v2h2a1 1 0 0 1 1 1v5h-4v2h10v-2h-4v-5z"/>
  </g>
</svg>
