<svg xmlns="http://www.w3.org/2000/svg" viewBox="0 0 16 16">
  <path fill="currentColor" d="M8 1C4.134 1 1 4.133 1 8s3.134 7 7 7 7-3.133 7-7-3.134-7-7-7zm-.007 12.182c-.646 0-1.16-.513-1.16-1.16 0-.645.514-1.173 1.16-1.173.645 0 1.174.524 1.174 1.17s-.53 1.16-1.174 1.16zm1.742-4.78l-.524.34c-.443.292-.69.655-.69 1.135v.07H7.146a2.84 2.84 0 0 1-.05-.48c0-.62.28-1.193 1.008-1.697l.614-.42c.383-.26.55-.574.55-.926 0-.538-.423-1.054-1.28-1.054-.906 0-1.302.668-1.302 1.324 0 .14.014.27.052.375l-1.61-.06a1.895 1.895 0 0 1-.062-.53C5.06 5.216 6.095 4 7.985 4 9.964 4 11 5.147 11 6.33c0 .925-.51 1.58-1.265 2.072z"/>
</svg>
