<svg xmlns="http://www.w3.org/2000/svg" viewBox="0 0 41 45">
  <g fill="currentColor">
    <path opacity=".3" d="M36 9V7h-5V2h-2v5h-5.585l-5.708-5.707-1.414 1.414L20.586 7H9V1H7v6H1v2h6v27H1v2h6v6h2v-6h20v6h2v-6h5v-2h-5v-4h-2v4H9V9h13.586L29 15.414V18h2v-.586l3.293 3.292 1.414-1.414L31 14.586V9h5zm-7 3.586L25.415 9H29v3.586z"/>
    <path d="M39.536 34l-5.42-5.42a7.37 7.37 0 0 0 .718-3.163A7.41 7.41 0 0 0 31 18.925v-4.34L23.415 7H7v31h24v-5.464l5 5L39.536 34zm-6.703-8.583c0 2.987-2.43 5.417-5.417 5.417S22 28.404 22 25.417C22 22.43 24.43 20 27.417 20s5.416 2.43 5.416 5.417zM9 36V9h13.586L29 15.414v2.76A7.376 7.376 0 0 0 27.417 18a7.418 7.418 0 0 0 0 14.834A7.37 7.37 0 0 0 29 32.66V36H9zm23.29-5.003c.25-.22.487-.456.707-.707l3.71 3.71-.707.707-3.71-3.71z"/>
    <path opacity=".18" d="M32.833 25.417c0 2.987-2.43 5.417-5.417 5.417S22 28.404 22 25.417C22 22.43 24.43 20 27.417 20s5.416 2.43 5.416 5.417zm-.543 5.58c.25-.22.487-.456.707-.707l3.71 3.71-.707.707-3.71-3.71z"/>
    <path opacity=".18" d="M9 36V9h13.586L29 15.414v2.76A7.376 7.376 0 0 0 27.417 18a7.418 7.418 0 0 0 0 14.834A7.37 7.37 0 0 0 29 32.66V36H9z"/>
  </g>
</svg>
