<svg xmlns="http://www.w3.org/2000/svg" viewBox="0 0 28 42">
  <path fill="currentColor" d="M16.773 4.656a.963.963 0 0 0 .57-.476v-.286l-.38-.38h-.095c-.38 0-.57.19-.57.57v.19c.028.132.187.26.475.382zm.952 5.237h.19c.364-.208.618-.43.762-.667V8.94h-.667c-.22 0-.38-.35-.476-1.047V6.465c0-.487-.127-.772-.38-.857h-.096c-.508 0-.762.317-.762.952l.095 1.238c.24 1.396.68 2.095 1.34 2.095zM18.138 16v-.473c1.29-.178 1.936-.345 1.936-.5l.025-.693c-1.38.08-2.06.065-2.06-.044v-.287l.09-1.333c-.13-.38-.256-.57-.38-.57h-.19c-.38 0-.57.19-.57.57v1.62c0 .38-.22.57-.67.57l-.95-.095c-.57.127-.858.286-.858.476v.19l.38.48a6.41 6.41 0 0 0 1.81-.28l.285.287v.38c0 .826.19 1.334.57 1.524h.19c.255 0 .382-.603.382-1.81zm-2.13 5.133c.18-.243.372-.47.58-.682.208-.21.404-.39.59-.56l.146-.07.156-.123.13-.15.053-.156a.386.386 0 0 0-.188-.34.676.676 0 0 0-.37-.123l-.087.007-.06.02L16.9 19l-.097.08-.49.436c-.14.124-.266.243-.38.353a5.11 5.11 0 0 0-.666.79l-.038.04-.05.055-.03-.107-.02-.06v-.156l-.01-.155-.018-.233-.016-.23-.01-.157a.39.39 0 0 0-.21-.235.697.697 0 0 0-.317-.085l-.247.04c-.084.03-.127.09-.127.184a77.498 77.498 0 0 1 .23 2.288 113.6 113.6 0 0 1 .177 2.39.76.76 0 0 0 .226.32.523.523 0 0 0 .353.154l.183-.052.15-.14v-.375a4.75 4.75 0 0 0-.05-.72 4.768 4.768 0 0 1-.058-.72c0-.267.056-.53.17-.797a4.01 4.01 0 0 1 .44-.762zM20.41 9.69c.57 0 1.016-.223 1.333-.668v-.285c-.19 0-.286-.063-.286-.19l-.762.095c-.57 0-.857-.222-.857-.667v-.76c0-.42.222-.96.667-1.62.68-.53 1.03-.878 1.047-1.047a.963.963 0 0 0-.476-.57h-.286c-1.396.99-2.095 2.164-2.095 3.522v.095c0 1.396.572 2.094 1.715 2.094zm-6.64-2.095v.19c.14 1.27.362 1.904.667 1.904.53 0 1.037-.39 1.523-1.15v-.38l-.952.473h-.19l-.096-.95V3.31c0-1.523-.19-2.285-.57-2.285-.445.173-.668.427-.668.762.165.49.292 2.078.38 4.76l-.094 1.048zm7.07 13.698l-.094-.286c0-.512-.38-.957-1.143-1.333l-.38.095c-1.397.96-2.096 2.23-2.096 3.8.152.89.47 1.332.952 1.332.42 0 1.02-.317 1.8-.95.232.713.454 1.126.666 1.236h.286c.097 0 .192-.127.286-.38-.318-.958-.477-1.814-.477-2.57l.19-.95zM19.7 22.53c0 .403-.35.847-1.048 1.334h-.572v-.286c0-1.227.476-2.18 1.428-2.856h.19v1.81zm4.975-2.615l-1.143.38c-1.523.983-2.285 1.872-2.285 2.667.063 1.143.444 1.714 1.143 1.714.795 0 1.462-.317 2-.952h.095v1.143l.095.476c-.284 1.333-.696 2-1.238 2h-.19c-.423-.322-.71-.64-.857-.952l-.38.48c.25.95.693 1.43 1.332 1.43h.286c1.333-.53 2-1.8 2-3.81v-.29c0-2.85-.287-4.28-.858-4.28zm-1.904 3.81h-.09l-.28-.287v-.095c0-.825.54-1.492 1.62-2 .126 0 .22.19.285.57-.462 1.208-.97 1.81-1.524 1.81zM26.82 7.12l-.952.284h-.57c-.348 0-.602-.16-.763-.476V6.64c0-.316.477-.983 1.43-2v-.285c-.03-.13-.19-.258-.477-.38-.694.477-1.36 1.207-2 2.19h-.095c0-1.778-.19-2.667-.57-2.667h-.286c-.316.19-.475.444-.475.762h.094l.094.57c.068 3.238.29 4.857.667 4.857.446 0 .67-.223.67-.668l-.096-1.24v-.09c.868.5 1.5.76 1.91.76h.094c.95-.14 1.428-.52 1.428-1.15v-.09l-.093-.094zM10.3 10.23c1.61-.18 2.595-.75 2.95-1.716v-.19l-.19-.19h-.475c-.49.825-1.316 1.238-2.476 1.238-1.08 0-1.62-.603-1.62-1.81v-.476c0-1.016.47-2.063 1.43-3.142.83-.406 1.28-.724 1.33-.952 0-.19-.13-.317-.38-.38l-.77.19C8.39 4.182 7.53 5.61 7.53 7.086l.19 1.333c.45 1.2 1.307 1.81 2.57 1.81zm.774 8.555c-1.77.063-2.72.317-2.856.76.093.636.188.953.286.953.436 2.792.785 4.188 1.047 4.188h.29c.13-.127.418-.19.86-.19 2.03-.952 3.05-2.126 3.05-3.523 0-1.307-.89-2.037-2.667-2.19zm1.714 1.713c0 1.4-.793 2.416-2.38 3.046h-.19c-.208-.165-.493-1.308-.857-3.428 0-.305.61-.495 1.81-.57.71 0 1.25.285 1.62.856v.095zm3.794 8.042a.5.5 0 0 0-.577.408l-.003.015c-.04.21-.504 2.367-2.407 4.468-1.804 1.99-4.886 3.96-10.26 4.24.04-.05.075-.09.115-.15.604-.85 1.28-2.03 1.538-3.39a.5.5 0 1 0-.983-.182c-.214 1.144-.815 2.218-1.37 2.996-.277.39-.54.705-.733.92-.096.11-.175.19-.228.248l-.06.063-.02.015-.592.572.783.26s.165.055.45.156c.854.3 2.768 1.007 4.31 1.776a.5.5 0 0 0 .446-.894c-1.08-.54-2.32-1.04-3.27-1.402 5.594-.36 8.925-2.557 10.82-4.767 2.04-2.374 2.447-4.71 2.457-4.76a.5.5 0 0 0-.407-.58z"/>
</svg>
