<svg xmlns="http://www.w3.org/2000/svg" viewBox="0 0 18 18">
  <path opacity=".5" fill="#000000" d="M16.094 2.175l-.27-.27A5.69 5.69 0 0 0 11.8.24h-.014c-1.45 0-2.917.557-4.024 1.665L5.63 4.038a5.81 5.81 0 0 0-.716.876c-.31.206-.604.445-.876.717L1.906 7.77A5.688 5.688 0 0 0 .242 11.8a5.69 5.69 0 0 0 1.664 4.03l.27.27A5.686 5.686 0 0 0 6.2 17.76h.012c1.45 0 2.917-.558 4.025-1.665l2.132-2.133c.27-.272.51-.566.71-.876a5.69 5.69 0 0 0 .873-.717l2.132-2.14A5.688 5.688 0 0 0 17.75 6.2a5.685 5.685 0 0 0-1.663-4.03z"/>
  <path fill="currentColor" d="M15.03 3.24l-.27-.27a4.186 4.186 0 0 0-2.97-1.225A4.186 4.186 0 0 0 8.82 2.97L6.688 5.102a4.213 4.213 0 0 0 0 5.94l.27.27c.166.166.35.304.536.437l.79-.79.293-.3a2.74 2.74 0 0 1-.557-.418l-.27-.27c-.508-.506-.787-1.184-.787-1.91s.28-1.4.786-1.91l2.13-2.13c.5-.507 1.18-.786 1.91-.786s1.4.28 1.9.786l.27.27a2.68 2.68 0 0 1 .787 1.91c0 .723-.28 1.402-.786 1.908l-.195.197c.314.507.47 1.08.465 1.657l.79-.79a4.21 4.21 0 0 0 0-5.94z"/>
  <path fill="currentColor" d="M11.305 6.965l-.27-.27a4.18 4.18 0 0 0-.536-.437l-.79.79-.3.293c.2.12.39.25.555.42l.27.27c.507.51.786 1.19.786 1.91s-.28 1.4-.786 1.91l-2.13 2.13c-.507.51-1.185.79-1.91.79s-1.4-.28-1.91-.786l-.27-.27a2.68 2.68 0 0 1-.784-1.91c0-.723.28-1.402.787-1.91l.195-.2a3.066 3.066 0 0 1-.47-1.652l-.79.79a4.213 4.213 0 0 0 0 5.94l.27.27A4.186 4.186 0 0 0 6.2 16.26a4.186 4.186 0 0 0 2.97-1.224l2.134-2.133a4.214 4.214 0 0 0 0-5.94z"/>
</svg>
