<svg xmlns="http://www.w3.org/2000/svg" viewBox="0 0 14 14">
  <path fill="currentColor" d="M5.387 8.776c.137.137.288.253.442.36l.72-.722a2.274 2.274 0 0 1-.46-.345L5.92 7.9a2.282 2.282 0 0 1-.67-1.63c0-.618.24-1.196.67-1.627L7.54 3.04c.433-.43 1.01-.67 1.627-.67s1.192.24 1.623.67l.163.164c.727.727.854 1.82.403 2.686.225.38.342.805.34 1.233a3.307 3.307 0 0 0-.035-4.625l-.16-.163a3.31 3.31 0 0 0-4.665-.003L5.22 3.947a3.31 3.31 0 0 0 0 4.667l.162.163z"/>
  <path fill="currentColor" d="M8.768 5.395l-.163-.163a3.2 3.2 0 0 0-.442-.36l-.723.722c.164.097.32.207.458.345l.163.16c.44.43.67 1.01.67 1.62a2.28 2.28 0 0 1-.67 1.625L6.45 10.96c-.43.432-1.01.67-1.622.67s-1.195-.238-1.626-.67l-.162-.16a2.297 2.297 0 0 1-.373-2.745 2.382 2.382 0 0 1-.3-1.25l-.036.036a3.31 3.31 0 0 0 0 4.67l.167.16c.64.645 1.49.966 2.334.966s1.69-.32 2.333-.963l1.61-1.61a3.308 3.308 0 0 0 0-4.666z"/>
</svg>
