<svg xmlns="http://www.w3.org/2000/svg" viewBox="0 0 18 18">
  <path fill="currentColor" d="M15.03 3.24l-.27-.27a4.186 4.186 0 0 0-2.97-1.225A4.186 4.186 0 0 0 8.82 2.97L6.688 5.102a4.213 4.213 0 0 0 0 5.94l.27.27c.166.166.35.304.536.437l.79-.79.293-.295c-.2-.116-.39-.248-.557-.415l-.27-.27c-.508-.505-.787-1.183-.787-1.908s.28-1.402.786-1.91L9.88 4.03c.507-.507 1.185-.786 1.91-.786s1.4.28 1.908.786l.27.27a2.68 2.68 0 0 1 .786 1.91c0 .723-.28 1.402-.786 1.908l-.196.196c.315.505.472 1.08.466 1.655l.79-.79a4.21 4.21 0 0 0 0-5.94z"/>
  <path fill="currentColor" d="M11.305 6.965l-.27-.27a4.18 4.18 0 0 0-.536-.437l-.79.79-.294.293c.2.118.39.25.557.417l.27.27c.507.507.786 1.185.786 1.91s-.28 1.402-.787 1.908L8.11 13.977c-.506.507-1.184.786-1.908.786s-1.402-.28-1.91-.786l-.27-.27a2.68 2.68 0 0 1-.785-1.91c0-.723.28-1.402.786-1.908l.196-.198a3.066 3.066 0 0 1-.468-1.655l-.79.79a4.213 4.213 0 0 0 0 5.94l.27.27a4.186 4.186 0 0 0 2.97 1.225 4.186 4.186 0 0 0 2.97-1.225l2.133-2.133a4.214 4.214 0 0 0 0-5.94z"/>
</svg>
