<svg xmlns="http://www.w3.org/2000/svg" viewBox="0 0 18 18">
  <path fill="currentColor" d="M15.03 3.24l-.27-.27a4.186 4.186 0 0 0-2.97-1.225A4.186 4.186 0 0 0 8.82 2.97L6.688 5.102a4.213 4.213 0 0 0 0 5.94l.27.27c.166.166.35.304.536.437l.714-.717a3.222 3.222 0 0 1-.543-.43l-.27-.27c-.6-.6-.932-1.405-.932-2.263s.33-1.66.932-2.262l2.133-2.134c.6-.6 1.405-.932 2.263-.932s1.665.33 2.266.932l.27.27c.6.6.932 1.405.932 2.263 0 .857-.33 1.66-.932 2.262l-.305.303c.155.38.227.787.22 1.192l.79-.79a4.21 4.21 0 0 0 0-5.94z"/>
  <path fill="currentColor" d="M11.305 6.965l-.27-.27a4.18 4.18 0 0 0-.536-.437l-.717.715c.193.123.377.264.543.43l.27.27c.6.6.932 1.404.932 2.262s-.33 1.662-.933 2.263l-2.13 2.132c-.6.6-1.405.932-2.263.932-.858 0-1.662-.33-2.263-.932l-.27-.27a3.202 3.202 0 0 1 0-4.525l.303-.305a3.06 3.06 0 0 1-.222-1.192l-.79.79a4.213 4.213 0 0 0 0 5.94l.27.27a4.186 4.186 0 0 0 2.97 1.225 4.186 4.186 0 0 0 2.97-1.225l2.134-2.133a4.214 4.214 0 0 0 0-5.94z"/>
</svg>
