<svg xmlns="http://www.w3.org/2000/svg" viewBox="0 0 15 15">
  <path fill="currentColor" d="M12.463 2.385l-.23-.23c-.698-.698-1.617-1.047-2.537-1.047s-1.84.35-2.537 1.047l-1.826 1.82a3.6 3.6 0 0 0 0 5.075l.23.23c.143.143.3.26.458.374l.08-.08.594-.594.52-.52c-.177-.09-.344-.2-.488-.344l-.23-.23a1.942 1.942 0 0 1 0-2.744L8.323 3.32c.364-.364.85-.564 1.372-.564s1.008.2 1.372.564l.23.23a1.942 1.942 0 0 1 0 2.744l-.13.13c.414.495.627 1.1.62 1.71l.675-.676a3.598 3.598 0 0 0 0-5.073zM9.05 5.337c-.142-.142-.3-.26-.457-.373L7.4 6.158c.175.09.342.2.486.344l.23.23a1.942 1.942 0 0 1 0 2.744l-1.822 1.822c-.364.364-.85.564-1.372.564s-1.008-.2-1.372-.564l-.23-.23c-.364-.364-.564-.85-.564-1.372s.2-1.008.564-1.372l.13-.13a2.61 2.61 0 0 1-.62-1.71l-.675.675a3.6 3.6 0 0 0 0 5.07l.23.23a3.575 3.575 0 0 0 2.537 1.046c.92 0 1.84-.35 2.537-1.047l1.82-1.82a3.6 3.6 0 0 0 0-5.075l-.23-.23z"/>
</svg>
