<svg xmlns="http://www.w3.org/2000/svg" viewBox="0 0 22 22">
  <path fill="currentColor" d="M11 1C5.477 1 1 5.477 1 11s4.477 10 10 10 10-4.477 10-10S16.523 1 11 1zm0 17.55A1.553 1.553 0 0 1 9.45 17 1.553 1.553 0 0 1 11 15.45 1.553 1.553 0 0 1 12.55 17 1.553 1.553 0 0 1 11 18.55zm1.15-5.582V14h-2.3v-2c0-.303.123-.6.337-.813.214-.214.51-.337.813-.337A1.854 1.854 0 0 0 12.85 9 1.854 1.854 0 0 0 11 7.15 1.854 1.854 0 0 0 9.15 9h-2.3A4.15 4.15 0 0 1 11 4.85 4.15 4.15 0 0 1 15.15 9c0 1.89-1.27 3.467-3 3.968z"/>
</svg>
