<svg xmlns="http://www.w3.org/2000/svg" viewBox="0 0 24 15">
  <path opacity=".15" fill="currentColor" d="M2 4h2V2H2v2zm3 0h2V2H5v2zm3-2v2h2V2H8zm3.5 9H3V6h8.5a6.45 6.45 0 0 1 .53-1H2v7h10.03a6.45 6.45 0 0 1-.53-1z"/>
  <path opacity=".32" fill="currentColor" d="M11 8.5c0-.886.18-1.73.5-2.5H3v5h8.5a6.48 6.48 0 0 1-.5-2.5z"/>
  <path opacity=".6" fill="currentColor" d="M12.03 12H2V5h10.03a6.49 6.49 0 0 1 5.47-3c1.29 0 2.49.38 3.5 1.03V2.2A1.2 1.2 0 0 0 19.8 1H2.2A1.2 1.2 0 0 0 1 2.2v9.6A1.2 1.2 0 0 0 2.2 13h10.616a6.514 6.514 0 0 1-.787-1zM8 2h2v2H8V2zM5 2h2v2H5V2zM2 2h2v2H2V2z"/>
  <path fill="currentColor" d="M17.5 3a5.5 5.5 0 1 0 0 11 5.5 5.5 0 0 0 0-11zm.5 9.95V10h-1v2.95A4.477 4.477 0 0 1 13.05 9H16V8h-2.95A4.476 4.476 0 0 1 17 4.05V7h1V4.05A4.476 4.476 0 0 1 21.95 8H19v1h2.95A4.476 4.476 0 0 1 18 12.95z"/>
  <path opacity=".3" fill="currentColor" d="M14.364 7H16V5.364A3.482 3.482 0 0 0 14.364 7zM16 11.635V10h-1.636A3.48 3.48 0 0 0 16 11.635zm3-6.27V7h1.636A3.482 3.482 0 0 0 19 5.364zM17 9h1V8h-1v1zm2 2.635A3.484 3.484 0 0 0 20.636 10H19v1.635z"/>
</svg>
