<svg xmlns="http://www.w3.org/2000/svg" viewBox="0 0 23 15">
  <path fill="currentColor" d="M16.5 3a5.5 5.5 0 1 0 0 11 5.5 5.5 0 0 0 0-11zm.5 9.95V10h-1v2.95A4.477 4.477 0 0 1 12.05 9H15V8h-2.95A4.476 4.476 0 0 1 16 4.05V7h1V4.05A4.476 4.476 0 0 1 20.95 8H18v1h2.95A4.476 4.476 0 0 1 17 12.95z"/>
  <path opacity=".15" fill="currentColor" d="M16.5 2c1.29 0 2.49.38 3.5 1.03V2h-3.5zM2 12h9.03a6.535 6.535 0 0 1-.53-1H3V3h10.047c1-.63 2.183-1 3.453-1H2v10z"/>
  <path opacity=".3" fill="currentColor" d="M10 8.5A6.49 6.49 0 0 1 13.047 3H3v8h7.5a6.48 6.48 0 0 1-.5-2.5z"/>
  <path opacity=".6" fill="currentColor" d="M11.03 12H2V2h18v1.03c.36.23.694.493 1 .787V2.2A1.2 1.2 0 0 0 19.8 1H2.2A1.2 1.2 0 0 0 1 2.2v9.6A1.2 1.2 0 0 0 2.2 13h9.616a6.514 6.514 0 0 1-.787-1z"/>
  <path opacity=".3" fill="currentColor" d="M13.364 7H15V5.364A3.482 3.482 0 0 0 13.364 7zM15 11.635V10h-1.636A3.48 3.48 0 0 0 15 11.635zm3-6.27V7h1.636A3.482 3.482 0 0 0 18 5.364zM16 9h1V8h-1v1zm2 2.635A3.484 3.484 0 0 0 19.636 10H18v1.635z"/>
</svg>
