<svg xmlns="http://www.w3.org/2000/svg" viewBox="0 0 7 10">
  <path fill="currentColor" d="M3.63 8.652a.856.856 0 0 1-.32-.062.78.78 0 0 1-.43-.43.833.833 0 0 1-.062-.32.784.784 0 0 1 .49-.75.825.825 0 0 1 .32-.06.816.816 0 0 1 .58.233.828.828 0 0 1 .232.577.833.833 0 0 1-.233.58.776.776 0 0 1-.258.17.836.836 0 0 1-.32.062zm-.75-2.64V5.73c0-.195.024-.36.073-.49.05-.125.13-.244.248-.356.426-.406.91-.828 1.217-1.334.09-.145.135-.3.135-.46 0-.3-.1-.54-.293-.716a1.003 1.003 0 0 0-.7-.256c-.4 0-.715.118-.93.35a1.274 1.274 0 0 0-.33.618L1 3.002c.1-.62.355-1.104.76-1.438C2.21 1.19 2.805 1 3.523 1c.314 0 .615.043.893.13.27.082.514.21.72.376.204.164.366.37.485.613.12.24.18.525.18.844 0 .193-.02.372-.06.53a1.54 1.54 0 0 1-.2.45 5.49 5.49 0 0 1-.76.906c-.322.315-.65.543-.65 1.04v.12H2.88z"/>
</svg>
