<svg xmlns="http://www.w3.org/2000/svg" viewBox="0 0 12 12">
  <path opacity=".5" fill="#000000" d="M11.19 4.393l-.895-.172.51-.75.464-.68-.59-.583-.888-.883-.58-.587-.685.464-.754.51-.17-.9L7.45 0h-2.9l-.157.81-.172.894-.75-.51L2.79.73l-.584.585-.887.883-.583.584.46.684.51.755-.89.18-.81.15v2.9l.81.16.895.17-.51.75-.464.68.584.586.883.883.584.583.684-.46.756-.51.172.893.155.81h2.9l.153-.81.173-.896.752.51.684.46.584-.584.882-.884.583-.583-.465-.686-.51-.754.893-.173.81-.156V4.55l-.81-.157zM7.094 6a1.096 1.096 0 0 1-2.19 0 1.096 1.096 0 0 1 2.19 0z"/>
  <path fill="currentColor" d="M11 6.625v-1.25l-1.67-.322a3.453 3.453 0 0 0-.306-.74l.953-1.408-.883-.883-1.41.953c-.23-.13-.477-.23-.737-.304L6.625 1h-1.25l-.322 1.67c-.26.074-.507.176-.738.305l-1.41-.953-.883.884.953 1.41c-.13.23-.23.477-.304.737L1 5.375v1.25l1.67.322c.075.26.177.507.306.74l-.953 1.406.884.884 1.407-.952c.23.13.48.23.74.305l.32 1.67h1.25l.323-1.67a3.49 3.49 0 0 0 .74-.307l1.407.953.884-.884-.953-1.407c.13-.23.23-.478.305-.738L11 6.625zm-5 1.47a2.095 2.095 0 1 1 0-4.19 2.095 2.095 0 0 1 0 4.19z"/>
</svg>
