<svg xmlns="http://www.w3.org/2000/svg" viewBox="0 0 19 19">
  <path fill="currentColor" d="M18 10.563V8.438l-2.84-.548a5.8 5.8 0 0 0-.52-1.256l1.622-2.395-1.502-1.504-2.395 1.62a5.904 5.904 0 0 0-1.254-.517L10.564 1H8.437L7.89 3.84a5.81 5.81 0 0 0-1.255.518L4.24 2.738l-1.502 1.5 1.62 2.396A5.78 5.78 0 0 0 3.84 7.89L1 8.438v2.125l2.84.548c.125.444.3.864.518 1.258l-1.62 2.393 1.503 1.503 2.395-1.62c.392.22.814.393 1.256.52L8.438 18h2.125l.548-2.84a5.83 5.83 0 0 0 1.257-.52l2.393 1.62 1.502-1.502-1.62-2.393c.22-.393.392-.813.518-1.254l2.84-.546zm-8.5 1.86a2.925 2.925 0 1 1 .002-5.85 2.925 2.925 0 0 1-.002 5.85z"/>
</svg>
