<svg xmlns="http://www.w3.org/2000/svg" viewBox="0 0 16 16">
  <path fill="currentColor" d="M15 8.875v-1.75l-2.34-.45a4.782 4.782 0 0 0-.427-1.036l1.337-1.98-1.24-1.238-1.97 1.336a4.855 4.855 0 0 0-1.04-.427L8.873 1h-1.75l-.45 2.34a4.67 4.67 0 0 0-1.03.426L3.67 2.43 2.43 3.67l1.337 1.97a4.79 4.79 0 0 0-.428 1.036L1 7.124v1.75l2.34.452c.102.364.245.71.427 1.034L2.43 12.33l1.24 1.238 1.97-1.335c.323.183.67.323 1.034.43L7.124 15h1.75l.452-2.338a4.93 4.93 0 0 0 1.034-.43l1.972 1.334 1.237-1.237-1.34-1.97c.18-.33.32-.67.43-1.04L15 8.87zm-7 1.908a2.782 2.782 0 1 1 0-5.565 2.782 2.782 0 0 1 0 5.565z"/>
</svg>
