<svg xmlns="http://www.w3.org/2000/svg" viewBox="0 0 14 14">
  <path fill="currentColor" d="M13 7.75v-1.5l-2.005-.387c-.09-.313-.21-.61-.367-.887l1.145-1.69-1.06-1.06-1.69 1.145a4.116 4.116 0 0 0-.886-.363L7.75 1h-1.5l-.387 2.005c-.31.09-.608.21-.886.366L3.287 2.23l-1.06 1.06 1.144 1.69a4.09 4.09 0 0 0-.363.887L1 6.25v1.5l2.005.387c.09.312.21.61.367.886L2.227 10.71l1.063 1.062 1.687-1.144c.277.157.574.277.886.367L6.25 13h1.5l.387-2.004c.312-.09.61-.213.886-.367l1.69 1.14 1.06-1.06-1.144-1.69c.154-.277.275-.573.364-.885L13 7.75zM7 9.386a2.386 2.386 0 1 1 0-4.77 2.386 2.386 0 0 1 0 4.77z"/>
</svg>
