<svg xmlns="http://www.w3.org/2000/svg" viewBox="0 0 17 18">
  <path opacity=".1" fill="currentColor" d="M12 1.5H5C3.9 1.5.815 2.175.526 3 .236 3.825 0 5.4 0 6.5v1c0 1.1.9 2 2 2h1c1.1 0 2 .675 2 1.5s-.45 1.5-1 1.5-1 .902-1 2.002v.998c0 1.1.9 2 2 2h7c1.1 0 2-.9 2-2v-1c0-1.1-.34-2-.755-2l-1 .002c-.135 0-.245-.675-.245-1.5 0-.826.9-1.502 2-1.502h1c1.1 0 2-.9 2-2v-1c0-1.1-.675-4.185-1.5-4.474-.825-.29-2.4-.526-3.5-.526"/>
  <path opacity=".18" fill="currentColor" d="M12 2H5C3.9 2 1.18 2.563.938 3.25.698 3.937.5 5.4.5 6.5V7c0 1.1.9 2 2 2s2-.45 2-1 .225-1 .5-1 .5.9.5 2v2c0 1.1-.45 2-1 2s-1 .902-1 2c0 1.1.9 2 2 2h6c1.1 0 2-.9 2-2s-.226-2-.502-2-.726.003-1 .006c-.274 0-.497-.897-.497-1.995V9c0-1.1.23-2 .5-2 .28 0 .5.45.5 1s.9 1 2 1 2-.9 2-2v-.5c0-1.1-.56-3.82-1.25-4.062C14.567 2.198 13.1 2 12 2"/>
  <path opacity=".3" fill="currentColor" d="M13 2.5H4c-.55 0-1.4.206-1.89.458l-.78.598A7.056 7.056 0 0 0 1 5.5v2c0 .55.45 1 1 1h1c.55 0 1-.45 1-1s.45-1 1-1 1 .45 1 1v5c0 .55-.45 1-1 1s-1 .45-1 1v1c0 .55.45 1 1 1h7c.55 0 1-.45 1-1v-1c0-.55-.113-1-.25-1s-.587.004-1 .008h-.006c-.41 0-.745-.445-.745-.993V7.5c0-.55.45-1 1-1s1 .45 1 1 .45 1 1 1h1c.55 0 1-.45 1-1v-2c0-.55-.21-1.4-.46-1.89l-.6-.78A7.042 7.042 0 0 0 13 2.5"/>
  <path opacity=".5" fill="currentColor" d="M13 3H4c-.55 0-2.19.337-2.3.75-.11.413-.2 1.2-.2 1.75V7c0 .55.45 1 1 1s1-.336 1-.747.117-1.04.253-1.115C3.89 6.062 4.45 6 5 6h.5c.55 0 1 .45 1 1v5.494c0 .55-.117 1.292-.253 1.367-.135.08-.584.14-.996.14-.41 0-.75.45-.75 1s.45 1 1 1h6c.55 0 1-.45 1-1s-.332-1-.744-1c-.41 0-1.037-.11-1.114-.242-.076-.132-.14-.69-.14-1.24V7c0-.55.45-1 1-1h.495c.55 0 1.293.117 1.368.253.078.136.14.585.14.997 0 .412.45.75 1 .75s1-.45 1-1V5.5c0-.55-.337-2.19-.75-2.3-.412-.11-1.2-.2-1.75-.2"/>
  <path fill="#404040" d="M14 3H3C2 3 2 4 2 4v3h1V6s0-1 1-1h3v8.003L6.998 13S7 13.997 6 14h.003H5v1h7v-1h-1.002s-.986-.002-.998-.985V5h3s1 0 1 1v1h1V4c0-1-1-1-1-1z"/>
</svg>
