<svg xmlns="http://www.w3.org/2000/svg" viewBox="0 0 15 15">
  <path fill="#404040" d="M5 13l1-.002-.002-1S6 13 5 13zm8-11H2C1 2 1 3 1 3v3h1V5s0-1 1-1h3v9H4v1h7v-1H9.998s-.986-.002-.998-.985V4h3s1 0 1 1v1h1V3c0-1-1-1-1-1z"/>
  <path opacity=".8" fill="currentColor" d="M5.998 12H4v1h2v-.002H5c.998.002 1-.99 1-.998zm.002.998V12h-.002l.002.998zM13 1H2C1 1 1 2 1 2v1s0-1 1-1h11s1 0 1 1V2c0-1-1-1-1-1zM5 12l1-.002-.002-1S6 12 5 12zm4-.985v1c.012.983.998.985.998.985H11v-1H9.998s-.986-.002-.998-.985z"/>
</svg>
