<svg xmlns="http://www.w3.org/2000/svg" viewBox="0 0 19 14">
  <path fill="currentColor" d="M16.25 3H6.167a2.76 2.76 0 0 0-2.75 2.75v5.5A2.758 2.758 0 0 0 6.167 14H16.25A2.76 2.76 0 0 0 19 11.25v-5.5A2.758 2.758 0 0 0 16.25 3" opacity=".07"/>
  <path fill="currentColor" d="M15.81 3.42H6.607a2.758 2.758 0 0 0-2.75 2.75v4.66a2.757 2.757 0 0 0 2.75 2.75h9.205a2.758 2.758 0 0 0 2.75-2.75V6.17a2.76 2.76 0 0 0-2.75-2.75" opacity=".14"/>
  <path fill="currentColor" d="M15.792 3.917H6.625A2.3 2.3 0 0 0 4.333 6.21v4.582a2.3 2.3 0 0 0 2.292 2.292h9.167a2.3 2.3 0 0 0 2.292-2.292V6.208a2.3 2.3 0 0 0-2.292-2.29" opacity=".2"/>
  <path fill="currentColor" d="M15.792 4.356H6.625A1.84 1.84 0 0 0 4.792 6.19v4.62a1.84 1.84 0 0 0 1.833 1.834h9.167a1.84 1.84 0 0 0 1.833-1.833V6.19a1.84 1.84 0 0 0-1.833-1.834" opacity=".26"/>
  <path fill="currentColor" d="M15.792 4.833H6.625A1.38 1.38 0 0 0 5.25 6.208v4.583c0 .76.62 1.38 1.375 1.38h9.167a1.38 1.38 0 0 0 1.375-1.375V6.21a1.38 1.38 0 0 0-1.375-1.375" opacity=".34"/>
  <path fill="currentColor" d="M15.773 5.292h-9.13a.92.92 0 0 0-.916.917v4.58a.92.92 0 0 0 .917.915h9.128a.92.92 0 0 0 .917-.918v-4.58a.918.918 0 0 0-.92-.917" opacity=".38"/>
  <path fill="currentColor" d="M16.25 10.45c0 .44-.36.8-.8.8H6.967c-.44 0-.8-.36-.8-.8v-3.9c0-.44.36-.8.8-.8h8.483c.44 0 .8.36.8.8v3.9z"/>
  <path fill="#404040" d="M4 4h11v6H4z"/>
  <path fill="currentColor" d="M4 10V4h11v6H4m12-7H3v8h13V3" opacity=".2"/>
</svg>
