<svg xmlns="http://www.w3.org/2000/svg" viewBox="0 0 19 16">
  <path fill="currentColor" d="M15 2H4C2.35 2 1 3.35 1 5v6c0 1.65 1.35 3 3 3h11c1.65 0 3-1.35 3-3V5c0-1.65-1.35-3-3-3" opacity=".07"/>
  <path fill="currentColor" d="M14.52 2.458H4.48c-1.65 0-3 1.35-3 3v5.083c0 1.65 1.35 3 3 3h10.04c1.65 0 3-1.35 3-3V5.46c0-1.65-1.35-3-3-3" opacity=".14"/>
  <path fill="currentColor" d="M14.5 3h-10A2.507 2.507 0 0 0 2 5.5v5C2 11.875 3.125 13 4.5 13h10c1.375 0 2.5-1.125 2.5-2.5v-5C17 4.125 15.875 3 14.5 3" opacity=".2"/>
  <path fill="currentColor" d="M14.5 3.48h-10c-1.1 0-2 .9-2 2v5.04c0 1.1.9 2 2 2h10c1.1 0 2-.9 2-2V5.48c0-1.1-.9-2-2-2" opacity=".26"/>
  <path fill="currentColor" d="M14.5 4h-10C3.675 4 3 4.675 3 5.5v5c0 .825.675 1.5 1.5 1.5h10c.825 0 1.5-.675 1.5-1.5v-5c0-.825-.675-1.5-1.5-1.5" opacity=".34"/>
  <path fill="currentColor" d="M14.48 4.5H4.52c-.55 0-1 .45-1 1v5c0 .55.45 1 1 1h9.96c.55 0 1-.45 1-1v-5c0-.55-.45-1-1-1" opacity=".38"/>
  <path fill="currentColor" d="M15 10.2c0 .44-.36.8-.8.8H4.8c-.44 0-.8-.36-.8-.8V5.8c0-.44.36-.8.8-.8h9.4c.44 0 .8.36.8.8v4.4z"/>
  <path fill="#404040" d="M4 5h11v6H4z"/>
  <path fill="currentColor" d="M4 11V5h11v6H4m12-7H3v8h13V4" opacity=".2"/>
</svg>
