<svg xmlns="http://www.w3.org/2000/svg" viewBox="0 0 17 18">
  <path fill="currentColor" d="M13 6h-3v1.35h3c.91 0 1.65.74 1.65 1.65s-.74 1.65-1.65 1.65h-3V12h3c1.65 0 3-1.35 3-3s-1.35-3-3-3zM1 8.998c0 1.65 1.35 3 3 3h3v-1.35H4c-.91 0-1.65-.74-1.65-1.65 0-.91.74-1.65 1.65-1.65h3V6H4C2.35 6 1 7.348 1 8.998zm2.648 6.65l.707.707 2-2-.707-.707-2 2zm2.707-12l-2-2-.707.707 2 2 .707-.707zm6.998-1.295l-.707-.707-2 2 .707.707 2-2zm-2.707 12l2 2 .707-.706-2-2-.707.707zM8 4h1V1.562H8V4zm0 12.438h1V14H8v2.438z"/>
</svg>
