<svg xmlns="http://www.w3.org/2000/svg" viewBox="0 0 19 12">
  <path fill="currentColor" d="M7 5H3V1H1v10h2V7h4v4h2V1H7v4zm8.696.834c1.036-.19 2.045-.988 2.045-2.206C17.74 2.016 16.4 1 14.217 1c-1.64 0-2.815.654-3.572 1.54l.995 1.29c.66-.653 1.47-1 2.366-1 .982 0 1.738.376 1.738 1.145 0 .71-.687 1.03-1.723 1.03-.35 0-.995 0-1.163-.014v1.86c.14-.012.77-.03 1.163-.03 1.3 0 1.875.35 1.875 1.12 0 .727-.63 1.235-1.765 1.235-.91 0-1.934-.406-2.58-1.102l-1.035 1.38c.686.87 1.96 1.55 3.683 1.55 2.24 0 3.685-1.175 3.685-2.843 0-1.453-1.234-2.22-2.186-2.323z"/>
</svg>
