<svg xmlns="http://www.w3.org/2000/svg" viewBox="0 0 20 12">
  <path d="M7 5H3V1H1v10h2V7h4v4h2V1H7zm8.426-.414c-1.022 0-1.96.605-2.395 1.27-.012-.074-.012-.134-.012-.207 0-1.568.967-2.79 2.34-2.79.826 0 1.358.263 1.862.764l.895-1.608C17.445 1.414 16.49 1 15.355 1 12.595 1 11 3.11 11 6.092c0 2.774 1.19 5.076 4.034 5.076 2.13 0 3.57-1.46 3.57-3.38 0-2.094-1.497-3.202-3.178-3.202zm-.504 4.723c-1.303 0-1.807-1.05-1.89-1.996.447-.59 1.12-.93 1.82-.93.895 0 1.736.443 1.736 1.476 0 .695-.588 1.448-1.666 1.448z" fill="currentColor"/>
</svg>
