<svg xmlns="http://www.w3.org/2000/svg" viewBox="0 0 15 15">
  <path fill="currentColor" d="M14 7h-1.025A5.498 5.498 0 0 0 8 2.025V1H7v1.025A5.498 5.498 0 0 0 2.025 7H1v1h1.025A5.498 5.498 0 0 0 7 12.975V14h1v-1.025A5.498 5.498 0 0 0 12.975 8H14V7zm-2.05 0h-1.782A2.714 2.714 0 0 0 8 4.832v-1.78A4.476 4.476 0 0 1 11.95 7zM7.5 9.22A1.72 1.72 0 0 1 5.78 7.5c0-.948.772-1.72 1.72-1.72s1.72.772 1.72 1.72-.772 1.72-1.72 1.72zM7 3.05v1.782A2.714 2.714 0 0 0 4.832 7h-1.78A4.476 4.476 0 0 1 7 3.05zM3.05 8h1.782A2.715 2.715 0 0 0 7 10.168v1.78A4.476 4.476 0 0 1 3.05 8zM8 11.95v-1.782A2.715 2.715 0 0 0 10.168 8h1.78A4.476 4.476 0 0 1 8 11.95z"/>
</svg>
