<svg xmlns="http://www.w3.org/2000/svg" viewBox="0 0 21 18">
  <path opacity=".25" fill="currentColor" d="M9 1h3v11H9z"/>
  <path opacity=".5" fill="currentColor" d="M12 1v11h1V1h-1zM8 12h1V1H8v11z"/>
  <path fill="currentColor" d="M12 15H9v-1l-3 1.5L9 17v-1h3v1l3-1.5-3-1.5v1zm-6.6-3H8v-.9h-.8L5 4H3.8l-2.2 7.1H.9v.9h2.4v-.9h-.7L3 9.8h2.8l.4 1.3h-.8v.9zM3.3 8.8l1-3.2c0-.3.1-.6.1-.6s0 .3.1.6l1 3.2H3.3zm16 2.3L17.1 4H16l-2.2 7.1H13v.9h2.4v-.9h-.8l.4-1.3h2.8l.4 1.3h-.8v.9H20v-.9h-.7zm-3.9-2.3l1-3.2c0-.3.1-.6.1-.6s0 .3.1.6l1 3.2h-2.2z"/>
</svg>
