<svg xmlns="http://www.w3.org/2000/svg" viewBox="0 0 14 14">
  <path opacity=".3" fill="currentColor" d="M4 10h1V9H4v1zm0-2h1V7H4v1zm0-2h1V5H4v1zm0-2h1V3H4v1zm0-2h1V1H4v1zm2 8h1V9H6v1zm0-2h1V7H6v1zm0-2h1V5H6v1zm0-2h1V3H6v1zm0-2h1V1H6v1zm2 8h1V9H8v1zm0-2h1V7H8v1zm0-2h1V5H8v1zm0-2h1V3H8v1zm0-2h1V1H8v1zm2 8h1V9h-1v1zm0-2h1V7h-1v1zm0-2h1V5h-1v1zm0-2h1V3h-1v1zm0-2h1V1h-1v1zm2 8h1V9h-1v1zm0-2h1V7h-1v1zm0-2h1V5h-1v1zm0-2h1V3h-1v1zm0-3v1h1V1h-1z"/>
  <path fill="currentColor" d="M3 1H1v1h1v1H1v1h1v1H1v1h1v1H1v1h1v1H1v1h1v1H1v1h1v1h1v-1h1v1h1v-1h1v1h1v-1h1v1h1v-1h1v1h1v-1h1v1h1v-2H3V1zm9.4 0L4 9.4v.6h.6L13 1.6V1h-.6z"/>
</svg>
