<svg width="16" height="16" viewBox="0 0 16 16" fill="none" xmlns="http://www.w3.org/2000/svg">
<path fill-rule="evenodd" clip-rule="evenodd" d="M9 9.5C9 7.567 10.567 6 12.5 6C13.4794 6 14.3647 6.40222 15 7.05051V6H16V9.5V13H15V11.9495C14.3647 12.5978 13.4794 13 12.5 13C10.567 13 9 11.433 9 9.5ZM12.5 7.5C11.3954 7.5 10.5 8.39543 10.5 9.5C10.5 10.6046 11.3954 11.5 12.5 11.5C13.6046 11.5 14.5 10.6046 14.5 9.5C14.5 8.39543 13.6046 7.5 12.5 7.5Z" fill="currentColor"/>
<path fill-rule="evenodd" clip-rule="evenodd" d="M3.75003 3L0 13H2L3 10H6L7 13H9L5.25003 3H3.75003ZM5.66666 9L4.5 5.5L3.33334 9H5.66666Z" fill="currentColor"/>
</svg>
