<svg width="16" height="16" viewBox="0 0 16 16" fill="none" xmlns="http://www.w3.org/2000/svg">
<path fill-rule="evenodd" clip-rule="evenodd" d="M8 9.5C8 7.567 9.56702 6 11.5 6C12.4794 6 13.3647 6.40222 14 7.05051V6H15V9.5V13H14V11.9495C13.3647 12.5978 12.4794 13 11.5 13C9.56702 13 8 11.433 8 9.5ZM11.5 7.5C10.3954 7.5 9.5 8.39543 9.5 9.5C9.5 10.6046 10.3954 11.5 11.5 11.5C12.6046 11.5 13.5 10.6046 13.5 9.5C13.5 8.39543 12.6046 7.5 11.5 7.5Z" fill="currentColor"/>
<path fill-rule="evenodd" clip-rule="evenodd" d="M0 9.5C0 7.567 1.56702 6 3.5 6C4.47937 6 5.36475 6.40222 6 7.05051V6H7V9.5V13H6V11.9495C5.36475 12.5978 4.47937 13 3.5 13C1.56702 13 0 11.433 0 9.5ZM3.5 7.5C2.39545 7.5 1.5 8.39543 1.5 9.5C1.5 10.6046 2.39545 11.5 3.5 11.5C4.60455 11.5 5.5 10.6046 5.5 9.5C5.5 8.39543 4.60455 7.5 3.5 7.5Z" fill="currentColor"/>
</svg>
