<svg xmlns="http://www.w3.org/2000/svg" viewBox="0 0 24 24">
  <path fill="currentColor" d="M13 3h-1v11.99c.31-.25.644-.492 1-.718V3zm6 0h-1v10.09c.343.054.676.134 1 .236V3zM3 21h1V3H3v18zM22 3h-1v11.272c.356.226.69.467 1 .717V3zm-6 0h-1v10.326a7.036 7.036 0 0 1 1-.238V3zM9 18.332l.347-.51c.077-.113.305-.434.653-.855V3H9v15.332zm0 1.22V21h1v-.052a12.61 12.61 0 0 1-.667-.895L9 19.55zM6 21h1V3H6v18zm11-6c-3.312 0-6 3.948-6 3.948S13.688 23 17 23c3.315 0 6-4.052 6-4.052S20.315 15 17 15zm0 7a3 3 0 1 1 0-6 3 3 0 0 1 0 6zm0-4.494a1.5 1.5 0 1 0 0 3 1.5 1.5 0 0 0 0-3z"/>
</svg>
